<svg width="107" height="42" viewBox="0 0 107 42" fill="none" xmlns="http://www.w3.org/2000/svg">
<g clip-path="url(#clip0_1_553)">
<path fill-rule="evenodd" clip-rule="evenodd" d="M98.9931 14.4549V11.1189H84.348L83.3366 14.4549H98.9931ZM58.7331 41.1429H73.2737V37.8069H58.7314V41.1429H58.7331ZM58.7331 35.5817H73.2737V32.2474H58.7314V35.5817H58.7331ZM79.9834 14.4549L78.9669 11.1206H64.3269V14.4549H79.9834ZM64.3251 25.5754H73.2737V22.2394H64.3251V25.5754ZM72.9943 20.0143V17.3606H73.0526L73.884 20.0143H89.3794L90.2691 17.3606H90.3291V20.0143H98.9966V16.68H82.4914L81.6617 19.2H81.6L80.7686 16.68H64.3234V20.016H72.9909L72.9943 20.0143ZM64.3251 30.0223H73.2737V26.6863H64.3251V30.0223ZM87.9429 25.5754L88.9303 22.2394H75.5091L76.4983 25.5754H87.9429ZM85.6697 30.0223L86.6931 26.6863H76.6286L77.652 30.0223H85.6697ZM83.5251 35.5817L84.4577 32.2474H78.8657L79.7966 35.5817H83.5251ZM79.9851 37.8069L80.9606 41.1429H81.3034L82.2223 37.8069H79.9851ZM58.7331 5.55943V8.89714H77.7463L76.7606 5.56114L58.7331 5.55943ZM58.7331 0V3.336H75.5091L74.5457 0H58.7331ZM25.1829 5.55943V8.89714H56.4977C56.3246 7.67143 55.4554 5.56114 55.4554 5.56114H25.1811L25.1829 5.55943ZM55.9817 14.4549C55.9817 14.4549 56.496 12.2091 56.496 11.1206H47.5491V14.4549H55.9817ZM55.3783 25.5754C55.3783 25.5754 53.8371 23.2817 52.8291 22.2394H30.7749V25.5754H55.3783ZM25.1829 32.2457V35.5817H55.4554C55.9766 34.5617 56.3246 33.4046 56.4977 32.2474H25.1829V32.2457ZM25.1829 37.8069V41.1429H44.9897C51.36 41.1429 53.1429 37.8069 53.1429 37.8069H25.1829ZM52.488 20.0143C53.615 19.0553 54.5896 17.9304 55.3783 16.6783H30.7749V20.0143H52.488ZM56.4977 30.0223C56.4977 28.8651 56.3263 27.7766 55.9834 26.6863H47.5491V30.0223H56.4977ZM30.7749 30.0223H39.7217V26.6863H30.7731L30.7749 30.0223ZM30.7749 11.1206V14.4549H39.7217V11.1206H30.7749ZM53.1429 3.336C50.7891 1.04229 48.0891 0 45.0463 0H25.1829V3.336H53.1429ZM7.28743 30.0223H16.236V26.6863H7.28572L7.28743 30.0223ZM1.69714 35.5817H21.8263V32.2474H1.69714V35.5817ZM1.69714 41.1429H21.8263V37.8069H1.69714V41.1429ZM1.69714 3.336H21.8263V0H1.69714V3.336ZM1.69714 8.89714H21.8263V5.55771H1.69714V8.89714ZM7.28743 14.4549H16.236V11.1206H7.28572L7.28743 14.4549ZM7.28743 20.0143H16.236V16.68H7.28572V20.016L7.28743 20.0143ZM7.28743 25.5754H16.236V22.2394H7.28572L7.28743 25.5754ZM90.048 25.5754H98.9966V22.2394H90.048V25.5754ZM90.048 30.0223H98.9966V26.6863H90.048V30.0223ZM90.048 35.5817H104.589V32.2474H90.048V35.5817ZM90.048 41.1429H104.589V37.8069H90.048V41.1429ZM104.589 8.89714V5.55943H86.6229L85.5789 8.89371H104.59L104.589 8.89714ZM104.589 3.336V0H88.896L87.8126 3.336H104.589Z" fill="#1C2034"/>
</g>
<defs>
<clipPath id="clip0_1_553">
<rect width="106.286" height="41.1429" fill="white"/>
</clipPath>
</defs>
</svg>
