<svg width="138" height="35" viewBox="0 0 138 35" fill="none" xmlns="http://www.w3.org/2000/svg">
<g id="Frame" clip-path="url(#clip0_1_555)">
<path id="Vector" d="M44.4525 27.4254L46.1462 23.4945C47.9754 24.8608 50.4045 25.5688 52.8062 25.5688C54.5805 25.5688 55.6999 24.8882 55.6999 23.8494C55.6725 20.9557 45.0817 23.222 44.9994 15.9602C44.9719 12.2745 48.2479 9.43739 52.8885 9.43739C55.6451 9.43739 58.4017 10.1197 60.3679 11.6745L58.7839 15.6877C56.9839 14.5408 54.7451 13.7231 52.6142 13.7231C51.1691 13.7231 50.2142 14.4054 50.2142 15.278C50.2399 18.1168 60.9131 16.562 61.0228 23.4945C61.0228 27.2625 57.8291 29.9094 53.2434 29.9094C49.8851 29.9094 46.8011 29.1191 44.4525 27.4254ZM109.395 22.0751C108.967 22.8278 108.348 23.4541 107.6 23.8906C106.852 24.3271 106.002 24.5583 105.137 24.5608C104.495 24.5615 103.859 24.4356 103.266 24.1903C102.673 23.945 102.134 23.5851 101.68 23.1313C101.226 22.6775 100.867 22.1386 100.621 21.5456C100.376 20.9525 100.25 20.3169 100.251 19.6751C100.25 19.0332 100.376 18.3974 100.621 17.8041C100.866 17.2108 101.226 16.6718 101.68 16.2178C102.134 15.7638 102.672 15.4038 103.266 15.1584C103.859 14.913 104.495 14.787 105.137 14.7877C106.964 14.7877 108.548 15.7974 109.395 17.2717L114.063 14.678C113.172 13.092 111.876 11.771 110.308 10.8502C108.739 9.92946 106.954 9.44188 105.135 9.43739C102.42 9.43829 99.8176 10.5171 97.8985 12.4365C95.9793 14.356 94.901 16.9591 94.9005 19.6734C94.901 22.3877 95.9793 24.9907 97.8985 26.9102C99.8176 28.8297 102.42 29.9085 105.135 29.9094C106.956 29.9142 108.744 29.4305 110.315 28.5088C111.885 27.5871 113.179 26.261 114.063 24.6688L109.395 22.0751ZM69.2119 0.948242H63.3697V29.5271H69.2119V0.948242ZM116.355 0.948242V29.5271H122.197V20.9557L129.13 29.5271H136.609L127.793 19.346L135.954 9.8471H128.802L122.197 17.7345V0.948242H116.355ZM86.5725 22.1317C85.7274 23.522 83.9805 24.5591 82.0142 24.5591C79.3125 24.5591 77.1285 22.3751 77.1285 19.6734C77.1285 16.9717 79.3125 14.7877 82.0142 14.7877C83.9805 14.7877 85.7274 15.8797 86.5742 17.2991V22.13L86.5725 22.1317ZM86.5725 9.8471V12.1665C85.6177 10.5551 83.2434 9.43739 80.7594 9.43739C75.6268 9.43739 71.5879 13.9682 71.5879 19.646C71.5879 25.3237 75.6268 29.9094 80.7594 29.9094C83.2434 29.9094 85.6177 28.7917 86.5725 27.1802V29.5014H92.4148V9.8471H86.5725Z" fill="#1C2034"/>
<path id="Vector_2" d="M8.33766 22.1025C8.33766 24.0962 6.72623 25.7059 4.73423 25.7059C2.74223 25.7059 1.1308 24.0945 1.1308 22.1025C1.1308 20.1105 2.74223 18.499 4.73423 18.499H8.33766V22.1025ZM10.1394 22.1025C10.1389 21.6291 10.2318 21.1603 10.4127 20.7229C10.5937 20.2856 10.8591 19.8881 11.1938 19.5534C11.5285 19.2187 11.9259 18.9533 12.3633 18.7724C12.8007 18.5915 13.2695 18.4986 13.7428 18.499C14.2161 18.4986 14.6849 18.5915 15.1223 18.7724C15.5597 18.9533 15.9571 19.2187 16.2918 19.5534C16.6265 19.8881 16.8919 20.2856 17.0729 20.7229C17.2538 21.1603 17.3467 21.6291 17.3462 22.1025V31.111C17.3462 33.1047 15.7348 34.7145 13.7428 34.7145C11.7508 34.7145 10.1394 33.103 10.1394 31.111V22.1025Z" fill="#1C2034"/>
<path id="Vector_3" d="M13.7428 7.63557C13.2695 7.63602 12.8007 7.54312 12.3633 7.36219C11.9259 7.18126 11.5285 6.91585 11.1938 6.58116C10.8591 6.24646 10.5937 5.84904 10.4128 5.41165C10.2318 4.97426 10.1389 4.50548 10.1394 4.03214C10.1389 3.55881 10.2318 3.09003 10.4128 2.65264C10.5937 2.21524 10.8591 1.81783 11.1938 1.48313C11.5285 1.14843 11.9259 0.883018 12.3633 0.702089C12.8007 0.521159 13.2695 0.428262 13.7428 0.428713C14.2162 0.428262 14.6849 0.521159 15.1223 0.702089C15.5597 0.883018 15.9571 1.14843 16.2918 1.48313C16.6265 1.81783 16.8919 2.21524 17.0729 2.65264C17.2538 3.09003 17.3467 3.55881 17.3462 4.03214V7.63557H13.7428ZM13.7428 9.463C14.2163 9.46255 14.6852 9.5555 15.1227 9.73654C15.5602 9.91757 15.9577 10.1831 16.2924 10.518C16.6272 10.8529 16.8925 11.2505 17.0734 11.6881C17.2542 12.1257 17.3469 12.5947 17.3462 13.0681C17.3467 13.5415 17.2538 14.0103 17.0729 14.4476C16.8919 14.885 16.6265 15.2825 16.2918 15.6172C15.9571 15.9519 15.5597 16.2173 15.1223 16.3982C14.6849 16.5791 14.2162 16.672 13.7428 16.6716H4.70853C4.2352 16.672 3.76642 16.5791 3.32903 16.3982C2.89164 16.2173 2.49422 15.9519 2.15952 15.6172C1.82482 15.2825 1.55941 14.885 1.37848 14.4476C1.19755 14.0103 1.10465 13.5415 1.1051 13.0681C1.10465 12.5949 1.19749 12.1263 1.37832 11.689C1.55914 11.2518 1.8244 10.8544 2.15891 10.5197C2.49343 10.1851 2.89065 9.91961 3.32784 9.73858C3.76503 9.55755 4.23363 9.46449 4.70682 9.46471L13.7428 9.463Z" fill="#1C2034"/>
<path id="Vector_4" d="M28.184 13.0678C28.184 11.0741 29.7954 9.46434 31.7874 9.46434C33.7794 9.46434 35.3908 11.0758 35.3908 13.0678C35.3908 15.0598 33.7794 16.6712 31.7874 16.6712H28.184V13.0678ZM26.3823 13.0678C26.3827 13.5411 26.2898 14.0099 26.1089 14.4473C25.928 14.8847 25.6626 15.2821 25.3279 15.6168C24.9932 15.9515 24.5957 16.2169 24.1584 16.3978C23.721 16.5788 23.2522 16.6717 22.7788 16.6712C22.3055 16.6717 21.8367 16.5788 21.3993 16.3978C20.9619 16.2169 20.5645 15.9515 20.2298 15.6168C19.8951 15.2821 19.6297 14.8847 19.4488 14.4473C19.2679 14.0099 19.175 13.5411 19.1754 13.0678V4.03177C19.1754 3.07631 19.555 2.15998 20.2306 1.48437C20.9062 0.808755 21.8225 0.429199 22.778 0.429199C23.7334 0.429199 24.6498 0.808755 25.3254 1.48437C26.001 2.15998 26.3806 3.07631 26.3806 4.03177V13.0661L26.3823 13.0678Z" fill="#1C2034"/>
<path id="Vector_5" d="M22.7771 27.5076C23.2506 27.5069 23.7196 27.5997 24.1572 27.7805C24.5948 27.9613 24.9924 28.2267 25.3273 28.5614C25.6621 28.8961 25.9277 29.2936 26.1087 29.7311C26.2898 30.1686 26.3827 30.6375 26.3823 31.111C26.3827 31.5844 26.2898 32.0531 26.1089 32.4905C25.928 32.9279 25.6626 33.3253 25.3279 33.66C24.9932 33.9947 24.5957 34.2601 24.1584 34.4411C23.721 34.622 23.2522 34.7149 22.7788 34.7145C22.3055 34.7149 21.8367 34.622 21.3993 34.4411C20.9619 34.2601 20.5645 33.9947 20.2298 33.66C19.8951 33.3253 19.6297 32.9279 19.4488 32.4905C19.2679 32.0531 19.175 31.5844 19.1754 31.111V27.5076H22.7788H22.7771ZM22.7788 25.7059C20.7868 25.7059 19.1754 24.0945 19.1754 22.1025C19.1754 20.1105 20.7868 18.499 22.7788 18.499H31.8148C32.2882 18.4986 32.757 18.5915 33.1944 18.7724C33.6317 18.9533 34.0292 19.2187 34.3639 19.5534C34.6986 19.8881 34.964 20.2856 35.1449 20.7229C35.3258 21.1603 35.4187 21.6291 35.4183 22.1025C35.4187 22.5758 35.3258 23.0446 35.1449 23.482C34.964 23.9194 34.6986 24.3168 34.3639 24.6515C34.0292 24.9862 33.6317 25.2516 33.1944 25.4325C32.757 25.6134 32.2882 25.7063 31.8148 25.7059H22.7788Z" fill="#1C2034"/>
</g>
<defs>
<clipPath id="clip0_1_555">
<rect width="137.143" height="34.2857" fill="white" transform="translate(0.285706 0.428711)"/>
</clipPath>
</defs>
</svg>
