<svg width="309" height="31" viewBox="0 0 309 31" fill="none" xmlns="http://www.w3.org/2000/svg">
<g clip-path="url(#clip0_1_561)">
<path d="M285.075 29.7158C285.075 29.03 285.633 28.4746 286.359 28.4746C287.086 28.4746 287.643 29.0318 287.643 29.7158C287.643 30.4015 287.086 30.9998 286.359 30.9998C285.633 30.9998 285.075 30.4426 285.075 29.7158ZM285.333 29.7158C285.333 30.2729 285.802 30.7443 286.402 30.7443C286.959 30.7443 287.429 30.3158 287.429 29.7158C287.427 29.5836 287.398 29.4532 287.345 29.3322C287.292 29.2111 287.216 29.1017 287.12 29.0102C287.025 28.9188 286.912 28.8471 286.789 28.7993C286.666 28.7515 286.534 28.7286 286.402 28.7318C285.761 28.7318 285.333 29.2015 285.333 29.7158Z" fill="#1C2034"/>
<path d="M287.002 30.4429H286.745L286.317 29.8018H286.061V30.4446H285.89V29.0321H286.531C286.659 29.0321 286.788 29.0321 286.874 29.1178C287.002 29.1589 287.045 29.2892 287.045 29.4161C287.045 29.6732 286.831 29.8018 286.574 29.8018L287.002 30.4446V30.4429ZM286.317 29.6304C286.531 29.6304 286.788 29.6732 286.788 29.4161C286.788 29.2446 286.617 29.2018 286.445 29.2018H286.061V29.6304H286.317ZM280.239 31.0001C289.227 23.2961 301.853 15.8064 308.786 13.1115C307.716 12.4258 306.046 11.4418 304.164 10.3721C295.219 13.3241 284.775 19.8726 275.446 27.2766C277.03 28.4766 278.698 29.7161 280.239 31.0001Z" fill="#1C2034"/>
<path d="M276.13 10.0728C274.804 9.42995 273.348 8.83167 272.236 8.31738C268.855 9.9871 264.448 12.5122 258.883 16.4928C260.081 17.134 261.365 17.9054 262.735 18.6751C267.015 15.5088 271.337 12.5122 276.13 10.0728Z" fill="#1C2034"/>
<path d="M284.134 6.39193C282.507 5.49364 276.859 3.39536 272.964 2.49707C271.809 2.92564 270.182 3.56678 269.069 4.03821C270.482 4.42393 275.746 5.83478 280.24 8.1045C281.395 7.54736 283.022 6.86336 284.134 6.39193Z" fill="#1C2034"/>
<path d="M265.003 5.83398C259.996 8.14656 254.733 11.3128 251.865 13.154C252.892 13.6237 253.918 14.0094 255.331 14.6934C261.665 10.4146 266.63 7.80198 268.598 6.94656C267.185 6.43227 265.86 6.09113 265.003 5.83398Z" fill="#1C2034"/>
<path d="M287.901 5.06527C289.056 4.67955 290.383 4.33841 291.538 3.99555C288.201 2.58298 284.006 1.0847 280.239 0.143555C279.641 0.314983 277.843 0.784698 276.602 1.17213C277.886 1.55613 282.123 2.54013 287.901 5.06527ZM266.801 21.1573C268.171 21.9698 269.626 23.0824 271.039 24.0253C280.411 16.7498 289.656 11.1424 299.798 7.97613C298.387 7.24755 297.146 6.6047 295.562 5.83498C289.485 7.37784 279.084 11.5264 266.801 21.1573Z" fill="#1C2034"/>
<path d="M0.642883 28.7752H7.48974C10.9577 28.7752 12.5829 26.9769 12.5829 24.4518C12.5829 22.3981 11.5132 21.0284 9.28803 20.6015C11.256 20.1301 12.156 18.9318 12.156 17.1764C12.156 14.9512 10.5275 13.1546 7.06288 13.1546H0.68574V28.7752H0.642883ZM6.59145 22.1409C7.87545 22.1409 8.77374 22.7838 8.77374 24.0678C8.77374 25.4375 7.91831 25.9929 6.59145 25.9929H4.36631V22.0981H6.59145V22.1409ZM6.16288 15.8924C7.4486 15.8924 8.34688 16.4495 8.34688 17.7335C8.34688 19.0175 7.48974 19.5729 6.16288 19.5729H4.36631V15.8924H6.16288ZM26.4069 13.1118H22.5549L16.692 28.7752H20.5869L21.6566 25.5215H27.3052L28.3749 28.7752H32.3143L26.4069 13.1118ZM24.4817 16.8746L26.3212 22.6518H22.5549L24.4817 16.8746ZM51.828 13.1101H48.276V23.5946L41.6006 13.1101H37.62V28.7735H41.172V18.3318L47.8492 28.7752H51.828V13.1101ZM68.22 28.7735L63.084 20.8124V28.7735H59.2749V13.1118H63.084V20.6426L67.9629 13.1118H72.2006L67.0646 20.6426L72.6703 28.7752L68.22 28.7735ZM86.1515 20.9409C86.1515 24.0661 88.0372 25.9912 90.4749 25.9912C92.9143 25.9912 94.7983 24.0661 94.7983 20.9409C94.7983 17.8175 92.9143 15.8906 90.4749 15.8906C88.0355 15.8906 86.1515 17.8175 86.1515 20.9409ZM82.1297 20.9409C82.1726 16.3621 85.3817 12.7672 90.4749 12.7672C95.568 12.7672 98.7772 16.3621 98.82 20.9409C98.7772 25.5215 95.568 29.1164 90.4749 29.1164C85.3835 29.1164 82.1726 25.5198 82.1297 20.9409ZM104.042 28.7735H107.851V22.6106H112.815V19.6141H107.851V16.1066H113.842L114.528 13.1118H104.04V28.7752L104.042 28.7735ZM132.288 13.1101H128.436L122.573 28.7735H126.468L127.538 25.5198H133.186L134.258 28.7735H138.194L132.288 13.1101ZM130.363 16.8746L132.202 22.6518H128.436L130.363 16.8746ZM160.791 13.1101H156.343L152.277 21.5838L148.21 13.1101H143.76V28.7735H147.183V18.2872L152.234 28.7735L157.284 18.2872V28.7735H160.836L160.791 13.1101ZM168.197 28.7735H178.894V25.7769H172.005V22.2678H177.441V19.3604H172.005V16.1066H178.296L178.98 13.1118H168.197V28.7735ZM193.404 28.7735H197.554L193.659 22.1392C195.801 21.5392 196.827 20.0426 196.827 17.8604C196.827 15.0352 195.115 13.1512 191.263 13.1512H185.229V28.8164H188.952V22.6535H189.979L193.404 28.7735ZM190.536 16.0192C192.12 16.0192 192.933 16.7049 192.933 18.0301C192.933 19.3569 192.12 20.0426 190.536 20.0426H188.909V16.0209H190.536V16.0192ZM203.247 28.7735H207.057V13.1529H203.247V28.7735ZM225.801 24.5786C224.347 25.6072 223.063 25.9501 221.736 25.9501C218.825 25.9501 216.771 23.9375 216.771 20.9409C216.771 17.9461 218.782 15.9352 221.607 15.9352C222.891 15.9352 224.175 16.2764 225.588 17.3032V13.7546C224.304 13.0278 222.806 12.7261 221.136 12.7261C215.957 12.7261 212.705 16.3226 212.662 20.9032C212.705 25.5249 215.871 29.0769 221.136 29.0769C222.891 29.0769 224.39 28.7769 225.758 28.0484V24.5821H225.801V24.5786ZM239.753 13.1101H235.901L230.038 28.7735H233.933L235.003 25.5198H240.651L241.723 28.7735H245.659L239.753 13.1101ZM237.828 16.8746L239.667 22.6518H235.901L237.828 16.8746Z" fill="#1C2034"/>
</g>
<defs>
<clipPath id="clip0_1_561">
<rect width="308.571" height="30.8571" fill="white" transform="translate(0.428589 0.143555)"/>
</clipPath>
</defs>
</svg>
