<svg width="182" height="29" viewBox="0 0 182 29" fill="none" xmlns="http://www.w3.org/2000/svg">
<g id="Frame" clip-path="url(#clip0_1_569)">
<path id="Vector" d="M7.94731 8.27342C7.842 7.83251 7.83323 7.37404 7.9216 6.92942C8.09474 6.10999 8.65017 5.20314 10.265 5.20314C11.753 5.22028 12.6445 6.13399 12.6445 7.52085V9.10485H19.0285V7.31342C19.0285 1.74542 14.009 0.857422 10.3885 0.857422C5.83874 0.857422 2.1256 2.36599 1.44674 6.53514C1.23931 7.67685 1.25817 8.84942 1.49817 9.98256C2.60731 15.2197 11.7067 16.7317 13.0285 20.0454C13.2307 20.6557 13.2479 21.314 13.0799 21.9346C12.8707 22.7917 12.2913 23.6643 10.5787 23.6643C8.98103 23.6643 8.02445 22.73 8.02445 21.3329V18.8677H1.14331V20.8391C1.14331 26.5666 5.63988 28.286 10.4485 28.286C15.0736 28.286 18.8742 26.7089 19.4913 22.4249C19.7159 21.036 19.7073 19.6194 19.4656 18.2334C18.3856 12.8591 8.67931 11.2683 7.94731 8.27342ZM91.2033 8.33514C91.1125 7.90219 91.1056 7.45586 91.1827 7.02028C91.3644 6.20256 91.9165 5.30771 93.5039 5.30771C94.9782 5.30771 95.8473 6.22828 95.8473 7.60999V9.16485H102.152V7.38542C102.152 1.87056 97.2222 1.00142 93.6256 1.00142C89.117 1.00142 85.433 2.48771 84.749 6.63971C84.54 7.76936 84.5604 8.92953 84.809 10.0511C85.9267 15.2266 94.937 16.7249 96.2347 20.0111C96.4267 20.6214 96.4422 21.2711 96.2862 21.8883C96.0873 22.7403 95.5147 23.5991 93.8176 23.5991C92.2233 23.5991 91.265 22.682 91.265 21.2969V18.8317H84.4765V20.786C84.4765 26.4431 88.9079 28.1506 93.6822 28.1506C98.2542 28.1506 102.031 26.5871 102.636 22.3528C102.852 20.9761 102.838 19.5729 102.593 18.2008C101.535 12.8951 91.9302 11.2974 91.2033 8.33514ZM149.335 22.2843L143.306 1.67342H133.805V27.0071H140.09L139.726 5.73628L146.201 27.0071H155.311V1.67342H148.985L149.335 22.2843ZM28.5513 1.67342L23.8079 27.2729H30.7113L34.2976 3.57628L37.7845 27.2763H44.6519L39.929 1.67342H28.5513ZM67.2187 1.67342L63.9873 21.686L60.7593 1.67342H50.3159L49.7639 27.2729H56.1616L56.3347 3.57285L60.7336 27.2729H67.2256L71.633 3.57628L71.8079 27.2763H78.2245L77.6502 1.67514L67.2187 1.67342ZM126.718 1.67342H120.231V20.6111C120.248 20.9403 120.231 21.2711 120.176 21.5968C120.041 22.2346 119.503 23.4569 117.715 23.4569C115.927 23.4569 115.412 22.2346 115.275 21.5968C115.214 21.2721 115.191 20.9412 115.208 20.6111V1.67342H108.727V20.0128C108.727 20.4826 108.756 21.4494 108.783 21.7014C109.229 26.4843 113 28.0357 117.704 28.0357C122.408 28.0357 126.19 26.4843 126.643 21.7014C126.696 21.1409 126.715 20.5751 126.698 20.0111L126.72 1.67514L126.718 1.67342ZM171.161 12.9054V16.6357H173.791V20.3403C173.801 20.6711 173.779 21.002 173.722 21.3277C173.619 22.0203 172.963 23.1946 171.092 23.1946C169.222 23.1946 168.596 22.0203 168.487 21.326C168.437 20.9999 168.413 20.6702 168.416 20.3403V8.64199C168.408 8.2353 168.447 7.82902 168.535 7.43171C168.66 6.80771 169.215 5.57856 171.079 5.57856C173.052 5.57856 173.525 6.87628 173.636 7.43171C173.688 7.75742 173.714 8.08828 173.715 8.41742V9.83856H180.164V8.99856C180.178 8.43408 180.161 7.86929 180.115 7.30656C179.63 2.50485 175.675 0.985993 171.135 0.985993C166.596 0.985993 162.713 2.51685 162.151 7.30656C162.099 7.74371 162.019 8.53056 162.019 9.00028V19.7626C162.022 20.3283 162.055 20.8906 162.122 21.4511C162.542 26.1191 166.592 27.7769 171.118 27.7769C175.646 27.7769 179.691 26.1329 180.118 21.4511C180.197 20.594 180.204 20.2323 180.214 19.7626V12.9054H171.161Z" fill="#1C2034"/>
</g>
<defs>
<clipPath id="clip0_1_569">
<rect width="181.714" height="27.4286" fill="white" transform="translate(0 0.857422)"/>
</clipPath>
</defs>
</svg>
