<svg width="162" height="42" viewBox="0 0 162 42" fill="none" xmlns="http://www.w3.org/2000/svg">
<g id="Frame" clip-path="url(#clip0_1_571)">
<path id="Vector" d="M156.474 7.25192H157.172C157.506 7.25192 157.734 7.20049 157.858 7.10106C157.916 7.0538 157.963 6.99357 157.994 6.92514C158.026 6.85671 158.041 6.78195 158.038 6.70678C158.039 6.60625 158.008 6.50798 157.95 6.42563C157.89 6.34096 157.805 6.27647 157.707 6.24049C157.604 6.19764 157.41 6.17878 157.128 6.17878H156.474V7.25192ZM155.897 9.25764V5.69192H157.122C157.541 5.69192 157.846 5.72621 158.034 5.79135C158.217 5.85318 158.374 5.97449 158.48 6.13592C158.605 6.31765 158.662 6.53739 158.642 6.75694C158.622 6.97649 158.525 7.18197 158.369 7.33764C158.171 7.53501 157.907 7.65123 157.628 7.66335C157.753 7.71478 157.854 7.77821 157.932 7.85192C158.072 7.98906 158.249 8.22735 158.456 8.55821L158.892 9.25764H158.182L157.868 8.69535C157.618 8.25478 157.421 7.97878 157.272 7.86735C157.138 7.77451 156.976 7.72979 156.814 7.74049H156.474V9.25764H155.897ZM157.349 4.65306C156.881 4.65306 156.428 4.77135 155.986 5.00963C155.545 5.24963 155.197 5.59249 154.949 6.03821C154.705 6.46032 154.576 6.93917 154.575 7.42678C154.575 7.90506 154.697 8.36278 154.942 8.80335C155.187 9.24049 155.53 9.58335 155.97 9.82678C156.411 10.0736 156.87 10.1971 157.349 10.1971C157.829 10.1971 158.286 10.0736 158.725 9.82678C159.166 9.58335 159.509 9.24049 159.752 8.80335C159.992 8.38182 160.118 7.90503 160.117 7.42009C160.116 6.93516 159.988 6.45884 159.747 6.03821C159.508 5.6023 159.148 5.24503 158.71 5.00963C158.293 4.77858 157.825 4.65596 157.349 4.65306ZM157.349 4.10449C157.906 4.10449 158.451 4.24849 158.981 4.53306C159.512 4.81935 159.925 5.22906 160.22 5.76049C160.518 6.29363 160.666 6.84906 160.666 7.42678C160.666 7.99763 160.52 8.54792 160.229 9.07592C159.937 9.60221 159.526 10.0136 159 10.3068C158.473 10.5982 157.921 10.7439 157.349 10.7439C156.774 10.7439 156.224 10.5999 155.696 10.3068C155.178 10.0218 154.751 9.59478 154.467 9.07592C154.18 8.57339 154.029 8.00528 154.026 7.42678C154.026 6.84906 154.176 6.29535 154.474 5.76049C154.772 5.22906 155.185 4.81935 155.715 4.53478C156.246 4.24849 156.792 4.10449 157.349 4.10449Z" fill="#1C2034"/>
<path id="Vector_2" fill-rule="evenodd" clip-rule="evenodd" d="M19.983 0.00583578C18.2993 0.0636394 16.6356 0.389441 15.0544 0.970979C8.89156 3.54241 4.60756 9.15326 2.66871 15.8853C2.34299 17.1504 2.07728 18.4138 1.93328 19.7201C1.93328 19.7613 1.83042 21.047 2.01556 20.7007C2.19899 20.3956 2.28128 19.9464 2.38242 19.5984C3.32013 16.4356 4.46356 13.559 6.21899 10.8247C10.4224 4.64298 17.175 0.664121 24.3167 2.86869C25.6418 3.31612 26.8247 3.97098 28.0093 4.74584C28.2321 4.90869 29.8847 6.21326 29.5178 5.03041C29.2127 4.09269 28.4378 3.29555 27.7641 2.66469C25.4944 0.698407 22.7533 -0.0678785 19.9813 0.0041215L19.983 0.00583578ZM72.0973 6.19269C71.139 6.19269 70.4053 6.51841 69.8944 7.19384C69.363 7.84526 69.1196 8.82584 69.1196 10.1115V19.415C67.9367 18.1104 66.7127 17.1693 65.4681 16.5367C64.6117 16.1234 63.6952 15.8486 62.7527 15.7224C62.1312 15.6377 61.5045 15.5964 60.8773 15.599C57.7556 15.599 55.2047 16.6996 53.2881 18.9024C51.3681 21.107 50.4099 24.1687 50.4099 28.1064C50.4099 29.963 50.655 31.6961 51.1247 33.2887C51.615 34.8795 52.3281 36.2664 53.2676 37.4493C54.207 38.6321 55.3264 39.5321 56.6104 40.1853C57.8961 40.8161 59.2847 41.1436 60.7933 41.1436C61.4508 41.1444 62.107 41.0824 62.7527 40.9584C63.1607 40.8984 63.5481 40.7955 63.9356 40.6738C64.8918 40.349 65.7934 39.8814 66.6098 39.287C67.4481 38.6733 68.2624 37.8778 69.1196 36.9213V37.5315C69.1196 38.6955 69.4059 39.5715 69.9561 40.2058C70.5047 40.8161 71.2419 41.1436 72.099 41.1436C72.9339 41.1436 73.6693 40.8384 74.2196 40.2453C74.7716 39.6333 75.0356 38.7367 75.0356 37.5315V9.78412C75.0356 8.62184 74.7904 7.72355 74.2813 7.10984C73.7499 6.49955 73.0161 6.19269 72.0973 6.19269ZM149.096 6.19269C148.136 6.19269 147.402 6.51841 146.893 7.19384C146.382 7.84526 146.118 8.82584 146.118 10.1115V19.415C144.936 18.1104 143.71 17.1693 142.467 16.5367C141.612 16.1208 140.696 15.8459 139.753 15.7224C139.131 15.6377 138.504 15.5964 137.876 15.599C134.756 15.599 132.224 16.6996 130.285 18.9024C128.369 21.107 127.409 24.1687 127.409 28.1064C127.409 29.963 127.654 31.6961 128.142 33.2887C128.633 34.8795 129.325 36.2664 130.265 37.4493C131.204 38.6321 132.325 39.5321 133.611 40.1853C134.897 40.8161 136.285 41.1436 137.794 41.1436C138.486 41.1436 139.14 41.0801 139.753 40.9584C140.161 40.8984 140.547 40.7955 140.936 40.6738C141.891 40.349 142.792 39.8814 143.607 39.287C144.445 38.6733 145.282 37.8778 146.118 36.9213V37.5315C146.118 38.6955 146.403 39.5715 146.953 40.2058C147.526 40.8161 148.239 41.1436 149.096 41.1436C149.974 41.1436 150.687 40.8384 151.239 40.2453C151.791 39.6333 152.076 38.7367 152.076 37.5315V9.78412C152.076 8.62184 151.812 7.72355 151.301 7.10984C150.769 6.49955 150.056 6.19269 149.096 6.19269ZM18.375 7.89155C17.5121 7.86926 16.6575 8.06376 15.8893 8.45726C15.2824 8.764 14.7421 9.18771 14.2995 9.70402C13.857 10.2203 13.5209 10.8191 13.3106 11.4657C13.1003 12.1124 13.0199 12.7943 13.0741 13.4722C13.1283 14.15 13.316 14.8105 13.6264 15.4156C13.9327 16.0225 14.3559 16.5629 14.8718 17.0056C15.3877 17.4483 15.9861 17.7847 16.6325 17.9953C17.2788 18.206 17.9605 18.2867 18.6382 18.2329C19.3159 18.1791 19.9762 17.9918 20.5813 17.6818C21.1881 17.3752 21.7284 16.9517 22.171 16.4356C22.6136 15.9196 22.9499 15.3211 23.1605 14.6747C23.3711 14.0282 23.4519 13.3465 23.3982 12.6687C23.3445 11.991 23.1573 11.3305 22.8476 10.7253C22.428 9.89223 21.7903 9.18867 21.0023 8.68963C20.2143 8.19058 19.3057 7.91475 18.3733 7.89155H18.375ZM89.4613 15.5167C87.6441 15.5373 85.9916 15.8424 84.483 16.4133C83.0002 16.9846 81.6624 17.8774 80.5659 19.0276C79.4769 20.2084 78.6491 21.6057 78.1367 23.1281C77.5707 24.7968 77.288 26.5484 77.3001 28.3104C77.3001 32.2687 78.4436 35.3681 80.6876 37.6738C82.8081 39.8578 85.7276 40.9995 89.4613 41.1213C89.6841 41.1435 89.8898 41.1436 90.1127 41.1436C91.8887 41.1436 93.4384 40.919 94.8064 40.451C96.1727 39.9795 97.2956 39.4087 98.1921 38.7144C99.111 38.0013 99.7641 37.2658 100.213 36.5116C100.662 35.7573 100.885 35.0835 100.885 34.5333C100.885 33.9007 100.683 33.3898 100.294 33.0418C99.8876 32.6973 99.3561 32.5104 98.7236 32.5104C98.1116 32.5104 97.6624 32.6561 97.335 32.9218C96.5636 33.6556 95.907 34.247 95.4184 34.6755C94.9281 35.0835 94.3984 35.4916 93.807 35.879C93.2139 36.2458 92.6241 36.5321 91.9899 36.6967C91.3192 36.883 90.6252 36.9719 89.9293 36.9607C89.7664 36.9607 89.6036 36.9607 89.4613 36.9401C88.5369 36.888 87.6399 36.6077 86.8504 36.1241C85.9316 35.5721 85.1756 34.7578 84.627 33.6967C84.0544 32.5944 83.7681 31.331 83.7476 29.903H96.0716C97.7036 29.903 98.9893 29.6578 99.9064 29.2087C100.805 28.7184 101.254 27.6984 101.254 26.1264C101.254 24.4121 100.825 22.7407 99.9476 21.0881C99.0699 19.4561 97.7447 18.1104 95.9893 17.0681C94.2338 16.0276 92.1116 15.5167 89.6636 15.5167H89.4613ZM114.658 15.5167C112.841 15.5373 111.169 15.8424 109.68 16.4133C108.193 16.9894 106.85 17.8814 105.742 19.0276C104.667 20.2149 103.848 21.6107 103.335 23.1281C102.768 24.7966 102.485 26.5483 102.498 28.3104C102.498 32.2687 103.62 35.3681 105.864 37.6738C107.986 39.8578 110.924 40.9995 114.658 41.1213C114.864 41.1435 115.086 41.1436 115.309 41.1436C117.065 41.1436 118.635 40.919 120.003 40.451C121.369 39.9795 122.492 39.4087 123.39 38.7144C124.289 38.0013 124.961 37.2658 125.41 36.5116C125.857 35.7573 126.084 35.0835 126.084 34.5333C126.084 33.9007 125.878 33.3898 125.47 33.0418C125.082 32.6973 124.553 32.5104 123.9 32.5104C123.308 32.5104 122.859 32.6561 122.533 32.9218C121.736 33.6556 121.105 34.247 120.617 34.6755C120.126 35.0835 119.576 35.4916 118.983 35.879C118.412 36.2458 117.8 36.5321 117.188 36.6967C116.554 36.8784 115.884 36.9607 115.128 36.9607C114.963 36.9607 114.802 36.9607 114.658 36.9401C113.733 36.8877 112.836 36.6074 112.045 36.1241C111.108 35.5721 110.372 34.7578 109.801 33.6967C109.251 32.5944 108.965 31.331 108.944 29.903H121.246C122.9 29.903 124.186 29.6578 125.084 29.2087C126.001 28.7184 126.449 27.6984 126.449 26.1264C126.449 24.4121 126.003 22.7407 125.124 21.0881C124.246 19.4561 122.941 18.1104 121.165 17.0681C119.41 16.0276 117.31 15.5167 114.84 15.5167H114.658ZM28.9676 15.5596C28.0504 15.5596 27.3356 15.8647 26.8247 16.4561C26.2933 17.027 26.0293 17.9253 26.0293 19.1287V37.307C26.0293 38.531 26.3156 39.4893 26.907 40.1441C27.4984 40.8161 28.2321 41.1436 29.151 41.1436C30.0887 41.1436 30.843 40.8161 31.4361 40.1853C32.0276 39.5321 32.3344 38.591 32.3344 37.3053V29.4538C32.3344 26.8601 32.4767 25.127 32.7818 24.1876C33.2104 23.0047 33.9064 22.0876 34.8236 21.4138C35.7118 20.7647 36.7834 20.4148 37.8836 20.4144C39.5978 20.4144 40.7601 20.9664 41.331 22.0653C41.9019 23.1693 42.1881 24.7584 42.1881 26.8413V37.307C42.1881 38.531 42.4744 39.4893 43.0658 40.1441C43.6573 40.8161 44.4133 41.1436 45.351 41.1436C46.2681 41.1436 47.0241 40.8161 47.595 40.163C48.1658 39.5321 48.471 38.5721 48.471 37.307V25.6156C48.471 24.2304 48.411 23.087 48.2876 22.2093C48.1758 21.3291 47.8995 20.4777 47.4733 19.6996C46.8486 18.3968 45.8271 17.3255 44.5556 16.6396C43.2493 15.9247 41.7613 15.5596 40.107 15.5596C38.3927 15.5596 36.8841 15.9041 35.5573 16.5795C34.251 17.2721 33.0493 18.3333 31.9247 19.8024V19.0276C31.9247 18.2921 31.8047 17.6613 31.539 17.1298C31.3025 16.6378 30.9263 16.2264 30.4573 15.947C30.0059 15.6829 29.4904 15.5489 28.9676 15.5596ZM89.4407 19.9036H89.4613C91.0916 19.9036 92.4184 20.435 93.4179 21.4961C94.4396 22.5555 95.0087 24.1687 95.1716 26.3304H83.7476C83.9721 24.2098 84.5859 22.5967 85.5853 21.5167C86.5847 20.4367 87.8687 19.9053 89.4424 19.9053L89.4407 19.9036ZM114.637 19.9036H114.658C116.29 19.9036 117.615 20.435 118.614 21.4961C119.616 22.5555 120.207 24.1687 120.349 26.3304H108.944C109.15 24.2098 109.762 22.5967 110.782 21.5167C111.781 20.4367 113.067 19.9053 114.639 19.9053L114.637 19.9036ZM62.6721 20.2721H62.7527C63.8344 20.2721 64.8339 20.5978 65.7321 21.2321C66.6698 21.863 67.407 22.7818 67.9573 23.9853C68.4887 25.1887 68.7733 26.6373 68.7733 28.3104C68.7733 30.1053 68.4887 31.595 67.9573 32.7778C67.407 33.9607 66.6716 34.8384 65.7527 35.4093C64.8544 35.9801 63.8344 36.2664 62.7527 36.2664H62.7339C61.6608 36.2709 60.6102 35.959 59.7133 35.3698C58.7756 34.7578 58.0607 33.8613 57.531 32.6784C56.9996 31.4733 56.7356 30.0247 56.7356 28.3104C56.7356 26.699 56.9807 25.2693 57.471 24.0658C57.9801 22.8436 58.6744 21.9041 59.5916 21.251C60.4899 20.5773 61.5287 20.2721 62.6721 20.2721ZM139.692 20.2721H139.753C140.833 20.2721 141.833 20.5978 142.753 21.2321C143.67 21.863 144.406 22.7818 144.954 23.9853C145.506 25.1887 145.772 26.6373 145.772 28.3104C145.772 30.1053 145.506 31.595 144.954 32.7778C144.406 33.9607 143.669 34.8384 142.772 35.4093C141.853 35.9801 140.854 36.2664 139.753 36.2664H139.733C138.66 36.2706 137.609 35.9587 136.712 35.3698C135.795 34.7578 135.061 33.8613 134.53 32.6784C133.998 31.4733 133.734 30.0247 133.734 28.3104C133.734 26.699 133.978 25.271 134.489 24.0658C134.977 22.8436 135.692 21.9041 136.59 21.251C137.509 20.5773 138.528 20.2721 139.692 20.2721ZM21.8687 20.4761C20.1775 21.4827 18.2448 22.0112 16.2767 22.0053C15.8481 22.0053 15.4401 21.9864 15.0116 21.9436V36.9607C15.0116 38.3493 15.3373 39.3881 15.9716 40.0824C16.623 40.7956 17.4201 41.1436 18.4196 41.1436C19.4396 41.1436 20.2778 40.7955 20.9087 40.103C21.543 39.4087 21.8687 38.3681 21.8687 36.9607V20.4761Z" fill="#1C2034"/>
</g>
<defs>
<clipPath id="clip0_1_571">
<rect width="161.143" height="41.1429" fill="white" transform="translate(0.714355)"/>
</clipPath>
</defs>
</svg>
