<svg width="217" height="35" viewBox="0 0 217 35" fill="none" xmlns="http://www.w3.org/2000/svg">
<g id="Frame" clip-path="url(#clip0_1_574)">
<path id="Vector" d="M197.422 24.0053C197.876 28.1881 200.741 29.3144 204.06 29.3144C206.244 29.3144 208.107 29.5647 209.688 27.3139C210.164 26.6316 211.733 25.8139 213.029 26.6196C214.484 27.5299 214.371 29.2013 213.485 30.4167C211.335 33.3619 208.004 34.111 204.06 34.111C197.921 34.111 192.283 29.8596 192.283 22.711C192.283 15.5144 196.286 9.86414 204.242 9.86414C211.529 9.86414 215.429 14.7413 215.429 22.0733V22.3476C215.429 23.0967 214.916 24.0053 214.178 24.0053H197.422ZM210.665 19.7196C209.938 16.0253 207.663 14.6624 204.242 14.6624C200.741 14.6624 198.149 16.0716 197.422 19.7196H210.665ZM183.711 26.995C183.711 28.5533 184.826 29.2699 186.554 29.2699C186.816 29.2699 187.099 29.3264 187.406 29.2699C188.498 29.0761 189.555 29.9967 189.794 31.087C190.056 32.191 189.408 33.259 188.328 33.5899C187.589 33.8161 186.725 34.123 185.621 34.111C181.904 34.0767 178.574 31.3956 178.574 27.6773V3.00871C178.608 2.33945 178.888 1.70639 179.36 1.23047C179.832 0.75455 180.462 0.469122 181.131 0.428711C181.801 0.466041 182.433 0.748762 182.907 1.22283C183.381 1.69689 183.664 2.32904 183.701 2.99843V26.995H183.711ZM163.203 34.111C161.729 34.1703 160.261 33.8896 158.913 33.2906C157.565 32.6916 156.373 31.7904 155.429 30.6567V31.0647C155.429 32.3727 154.155 33.4304 152.847 33.4304C151.551 33.4304 150.279 32.3727 150.279 31.0647V3.00871C150.315 2.33804 150.597 1.70404 151.07 1.22802C151.544 0.752014 152.177 0.467423 152.847 0.428711C153.521 0.462652 154.158 0.745319 154.635 1.22196C155.112 1.6986 155.395 2.33529 155.429 3.00871V13.615C156.384 12.4969 157.579 11.6093 158.925 11.0188C160.272 10.4283 161.734 10.1502 163.203 10.2053C169.116 10.2053 174.276 15.0361 174.276 22.1419C174.276 29.2801 169.126 34.111 163.203 34.111ZM162.727 15.4339C159.271 15.4339 155.429 17.1859 155.429 22.2893C155.429 27.3927 159.271 29.1447 162.727 29.1447C166.568 29.1447 169.57 26.5287 169.57 22.2893C169.611 21.379 169.462 20.4703 169.133 19.6205C168.804 18.7707 168.303 17.9983 167.66 17.3521C167.017 16.7071 166.245 16.2034 165.396 15.8732C164.546 15.5429 163.637 15.3933 162.727 15.4339ZM144.274 31.2807C144.234 31.9498 143.95 32.5811 143.478 33.0564C143.005 33.5316 142.375 33.8182 141.706 33.8624C141.037 33.8186 140.407 33.5322 139.934 33.0569C139.461 32.5816 139.177 31.9501 139.136 31.2807V20.4361C139.136 17.1053 136.908 15.2521 133.999 15.2521C130.303 15.2521 128.849 17.6059 128.849 22.6647V31.2807C128.809 31.9502 128.525 32.5819 128.052 33.0573C127.579 33.5327 126.949 33.819 126.279 33.8624C125.61 33.8186 124.98 33.5322 124.507 33.0569C124.034 32.5816 123.75 31.9501 123.71 31.2807V20.4361C123.71 17.1053 121.915 15.0139 119.004 15.0139C115.366 15.0139 113.422 17.6059 113.422 22.6647V31.2807C113.383 31.9504 113.099 32.5826 112.626 33.0581C112.153 33.5336 111.522 33.8197 110.852 33.8624C110.184 33.8182 109.554 33.5316 109.081 33.0564C108.608 32.5811 108.325 31.9498 108.284 31.2807V13.2859C108.326 12.6183 108.61 11.9888 109.083 11.5157C109.556 11.0426 110.185 10.7583 110.852 10.7161C111.52 10.7582 112.15 11.0425 112.623 11.5156C113.096 11.9887 113.38 12.6181 113.422 13.2859C115.059 11.2853 117.003 10.2516 120.243 10.2516C123.459 10.2516 125.666 11.6041 127.121 14.2287C128.938 11.695 131.578 10.3201 135.305 10.3201C139.988 10.3201 144.286 14.1499 144.286 19.4693V31.2927L144.274 31.2807ZM97.1313 31.5087C95.2336 33.487 94.0165 34.123 89.9022 34.123C84.4456 34.123 80.8525 30.5881 80.8525 24.8933V13.2859C80.8924 12.6174 81.1759 11.9867 81.6495 11.5131C82.123 11.0396 82.7537 10.756 83.4222 10.7161C84.0912 10.7546 84.7227 11.0377 85.1965 11.5115C85.6704 11.9853 85.9535 12.6168 85.9919 13.2859V23.9367C85.9919 27.6327 87.7199 29.5767 90.9925 29.5767C93.7216 29.5767 95.9502 29.1207 97.1313 25.8019C97.109 25.8019 97.1313 23.5853 97.1313 21.7099V13.2756C97.1706 12.6046 97.4549 11.9714 97.9302 11.4961C98.4067 11.023 99.041 10.7419 99.713 10.7059C100.381 10.745 101.012 11.0282 101.485 11.5015C101.959 11.9749 102.242 12.6056 102.281 13.2739V31.4864C102.281 32.7927 101.019 33.8504 99.713 33.8504C98.405 33.8504 97.1313 32.7927 97.1313 31.4847V31.5087ZM65.4942 34.123C64.0173 34.1821 62.5466 33.9001 61.1963 33.299C59.846 32.6978 58.6523 31.7937 57.7079 30.6567V31.0647C57.7079 32.3727 56.4462 33.4304 55.1382 33.4304C53.8319 33.4304 52.5702 32.3727 52.5702 31.0647V3.00871C52.6039 2.3374 52.8849 1.70234 53.3591 1.22595C53.8333 0.749554 54.467 0.46556 55.1382 0.428711C55.8095 0.46631 56.4433 0.750724 56.9176 1.22728C57.392 1.70384 57.6734 2.33892 57.7079 3.01043V13.615C58.6637 12.4952 59.8609 11.6066 61.2095 11.016C62.5581 10.4254 64.023 10.1482 65.4942 10.2053C71.4068 10.2053 76.5685 15.0361 76.5685 22.1419C76.5685 29.2801 71.4068 34.111 65.4942 34.111V34.123ZM65.0176 15.4339C61.5496 15.4339 57.7079 17.1859 57.7079 22.2893C57.7079 27.3927 61.5496 29.1447 65.0176 29.1447C68.8593 29.1447 71.849 26.5287 71.849 22.2893C71.8923 21.3798 71.7451 20.4712 71.4169 19.6219C71.0886 18.7726 70.5865 18.0013 69.9427 17.3573C69.3 16.7128 68.5302 16.209 67.6824 15.8779C66.8345 15.5468 65.927 15.3955 65.0176 15.4339ZM40.8033 16.3219C41.2473 17.0933 41.2473 18.0481 40.8033 18.8213L32.3347 33.4647C32.1148 33.8432 31.7998 34.1576 31.421 34.3768C31.0421 34.596 30.6125 34.7124 30.1747 34.7144H13.2376C12.7992 34.7148 12.3684 34.5994 11.9888 34.38C11.6093 34.1606 11.2944 33.8448 11.0759 33.4647L2.62275 18.8213C2.39989 18.4424 2.28503 18.0104 2.28503 17.5716C2.28503 17.1327 2.40161 16.7007 2.62103 16.3201L11.0776 1.68014C11.2966 1.30076 11.6114 0.985516 11.9905 0.765911C12.3695 0.546305 12.7995 0.430031 13.2376 0.428711L30.1765 0.428711C31.0627 0.428711 31.8822 0.906997 32.3365 1.68014L40.805 16.3201L40.8033 16.3219ZM30.2536 19.7196C31.4245 19.7196 32.3793 18.7544 32.3793 17.5716C32.3793 16.3887 31.4245 15.4339 30.2536 15.4339H13.1707C12.6024 15.4339 12.0574 15.6596 11.6555 16.0615C11.2537 16.4633 11.0279 17.0084 11.0279 17.5767C11.0279 18.145 11.2537 18.6901 11.6555 19.0919C12.0574 19.4938 12.6024 19.7196 13.1707 19.7196H30.2536ZM24.2982 26.995C25.457 26.995 26.3999 26.0401 26.3999 24.859C26.3999 23.6761 25.457 22.7093 24.2982 22.7093H19.1039C17.9433 22.7093 16.9987 23.6761 16.9987 24.859C16.9987 26.0419 17.9416 26.995 19.1022 26.995H24.2982ZM17.0005 8.16014C15.8296 8.16014 14.8747 9.115 14.8747 10.2979C14.8747 11.4807 15.8296 12.4459 17.0005 12.4459H26.4136C27.5845 12.4459 28.5393 11.4807 28.5393 10.2979C28.5393 9.115 27.5845 8.16014 26.4136 8.16014H17.0022H17.0005Z" fill="#1C2034"/>
</g>
<defs>
<clipPath id="clip0_1_574">
<rect width="216" height="34.2857" fill="white" transform="translate(0.857178 0.428711)"/>
</clipPath>
</defs>
</svg>
