<svg width="26" height="26" viewBox="0 0 26 26" fill="none" xmlns="http://www.w3.org/2000/svg">
<path d="M24.5556 17.7782C22.0624 17.7782 19.6849 17.2351 17.4922 16.1633C17.1484 15.9987 16.7498 15.9727 16.3858 16.0969C16.0218 16.224 15.7242 16.4898 15.5567 16.8336L14.5167 18.9858C11.3967 17.1947 8.80822 14.6033 7.01422 11.4833L9.16933 10.4433C9.516 10.2758 9.77889 9.97822 9.906 9.61422C10.0302 9.25022 10.0071 8.85156 9.83956 8.50778C8.76489 6.318 8.22178 3.94044 8.22178 1.44444C8.22178 0.647111 7.57467 0 6.77733 0H1.44444C0.647111 0 0 0.647111 0 1.44444C0 14.9847 11.0153 26 24.5556 26C25.3529 26 26 25.3529 26 24.5556V19.2227C26 18.4253 25.3529 17.7782 24.5556 17.7782Z" fill="#FAFAFA"/>
</svg>
