<svg width="19" height="20" viewBox="0 0 19 20" fill="none" xmlns="http://www.w3.org/2000/svg">
<path d="M17.9444 13.4918C16.1226 13.4918 14.3851 13.0949 12.7828 12.3117C12.5316 12.1913 12.2402 12.1723 11.9742 12.2631C11.7082 12.356 11.4908 12.5502 11.3683 12.8014L10.6083 14.3742C8.32833 13.0653 6.43678 11.1717 5.12578 8.89167L6.70067 8.13167C6.954 8.00922 7.14611 7.79178 7.239 7.52578C7.32978 7.25978 7.31289 6.96844 7.19044 6.71722C6.40511 5.117 6.00822 3.37956 6.00822 1.55556C6.00822 0.972889 5.53533 0.5 4.95267 0.5H1.05556C0.472889 0.5 0 0.972889 0 1.55556C0 11.4503 8.04967 19.5 17.9444 19.5C18.5271 19.5 19 19.0271 19 18.4444V14.5473C19 13.9647 18.5271 13.4918 17.9444 13.4918Z" fill="#FAFAFA"/>
</svg>
