<svg width="114" height="22" viewBox="0 0 114 22" fill="none" xmlns="http://www.w3.org/2000/svg">
<g id="Group 54">
<path id="Star 1" d="M10.5245 1.46352C10.6741 1.00287 11.3259 1.00287 11.4755 1.46353L13.3574 7.25532C13.4243 7.46133 13.6163 7.60081 13.8329 7.60081H19.9228C20.4071 7.60081 20.6085 8.22062 20.2167 8.50532L15.2899 12.0848C15.1146 12.2122 15.0413 12.4379 15.1082 12.6439L16.9901 18.4357C17.1398 18.8963 16.6125 19.2794 16.2207 18.9947L11.2939 15.4152C11.1186 15.2878 10.8814 15.2878 10.7061 15.4152L5.77931 18.9947C5.38745 19.2794 4.86021 18.8963 5.00989 18.4357L6.89176 12.6439C6.9587 12.4379 6.88537 12.2122 6.71012 12.0848L1.78333 8.50532C1.39147 8.22062 1.59286 7.60081 2.07722 7.60081H8.16708C8.38369 7.60081 8.57567 7.46133 8.6426 7.25532L10.5245 1.46352Z" fill="#F69C08"/>
<path id="Star 2" d="M33.5245 1.46352C33.6741 1.00287 34.3259 1.00287 34.4755 1.46353L36.3574 7.25532C36.4243 7.46133 36.6163 7.60081 36.8329 7.60081H42.9228C43.4071 7.60081 43.6085 8.22062 43.2167 8.50532L38.2899 12.0848C38.1146 12.2122 38.0413 12.4379 38.1082 12.6439L39.9901 18.4357C40.1398 18.8963 39.6125 19.2794 39.2207 18.9947L34.2939 15.4152C34.1186 15.2878 33.8814 15.2878 33.7061 15.4152L28.7793 18.9947C28.3875 19.2794 27.8602 18.8963 28.0099 18.4357L29.8918 12.6439C29.9587 12.4379 29.8854 12.2122 29.7101 12.0848L24.7833 8.50532C24.3915 8.22062 24.5929 7.60081 25.0772 7.60081H31.1671C31.3837 7.60081 31.5757 7.46133 31.6426 7.25532L33.5245 1.46352Z" fill="#F69C08"/>
<path id="Star 3" d="M56.5245 1.46352C56.6741 1.00287 57.3259 1.00287 57.4755 1.46353L59.3574 7.25532C59.4243 7.46133 59.6163 7.60081 59.8329 7.60081H65.9228C66.4071 7.60081 66.6085 8.22062 66.2167 8.50532L61.2899 12.0848C61.1146 12.2122 61.0413 12.4379 61.1082 12.6439L62.9901 18.4357C63.1398 18.8963 62.6125 19.2794 62.2207 18.9947L57.2939 15.4152C57.1186 15.2878 56.8814 15.2878 56.7061 15.4152L51.7793 18.9947C51.3875 19.2794 50.8602 18.8963 51.0099 18.4357L52.8918 12.6439C52.9587 12.4379 52.8854 12.2122 52.7101 12.0848L47.7833 8.50532C47.3915 8.22062 47.5929 7.60081 48.0772 7.60081H54.1671C54.3837 7.60081 54.5757 7.46133 54.6426 7.25532L56.5245 1.46352Z" fill="#F69C08"/>
<path id="Star 4" d="M79.5245 1.46352C79.6741 1.00287 80.3259 1.00287 80.4755 1.46353L82.3574 7.25532C82.4243 7.46133 82.6163 7.60081 82.8329 7.60081H88.9228C89.4071 7.60081 89.6085 8.22062 89.2167 8.50532L84.2899 12.0848C84.1146 12.2122 84.0413 12.4379 84.1082 12.6439L85.9901 18.4357C86.1398 18.8963 85.6125 19.2794 85.2207 18.9947L80.2939 15.4152C80.1186 15.2878 79.8814 15.2878 79.7061 15.4152L74.7793 18.9947C74.3875 19.2794 73.8602 18.8963 74.0099 18.4357L75.8918 12.6439C75.9587 12.4379 75.8854 12.2122 75.7101 12.0848L70.7833 8.50532C70.3915 8.22062 70.5929 7.60081 71.0772 7.60081H77.1671C77.3837 7.60081 77.5757 7.46133 77.6426 7.25532L79.5245 1.46352Z" fill="#F69C08"/>
<path id="Star 5" d="M102.524 1.46352C102.674 1.00287 103.326 1.00287 103.476 1.46353L105.357 7.25532C105.424 7.46133 105.616 7.60081 105.833 7.60081H111.923C112.407 7.60081 112.609 8.22062 112.217 8.50532L107.29 12.0848C107.115 12.2122 107.041 12.4379 107.108 12.6439L108.99 18.4357C109.14 18.8963 108.613 19.2794 108.221 18.9947L103.294 15.4152C103.119 15.2878 102.881 15.2878 102.706 15.4152L97.7793 18.9947C97.3875 19.2794 96.8602 18.8963 97.0099 18.4357L98.8918 12.6439C98.9587 12.4379 98.8854 12.2122 98.7101 12.0848L93.7833 8.50532C93.3915 8.22062 93.5929 7.60081 94.0772 7.60081H100.167C100.384 7.60081 100.576 7.46133 100.643 7.25532L102.524 1.46352Z" fill="#F69C08"/>
</g>
</svg>
