<svg width="18" height="18" viewBox="0 0 18 18" fill="none" xmlns="http://www.w3.org/2000/svg">
<g id="vuesax/linear/verify">
<g id="verify">
<path id="Vector" d="M6.28497 8.99957L8.09247 10.8146L11.715 7.18457" stroke="#606270" stroke-width="1.5" stroke-linecap="round" stroke-linejoin="round"/>
<path id="Vector_2" d="M8.06247 1.83773C8.57997 1.39523 9.42747 1.39523 9.95247 1.83773L11.1375 2.85773C11.3625 3.05273 11.7825 3.21023 12.0825 3.21023H13.3575C14.1525 3.21023 14.805 3.86273 14.805 4.65773V5.93273C14.805 6.22523 14.9625 6.65273 15.1575 6.87773L16.1775 8.06273C16.62 8.58023 16.62 9.42773 16.1775 9.95273L15.1575 11.1377C14.9625 11.3627 14.805 11.7827 14.805 12.0827V13.3577C14.805 14.1527 14.1525 14.8052 13.3575 14.8052H12.0825C11.79 14.8052 11.3625 14.9627 11.1375 15.1577L9.95247 16.1777C9.43497 16.6202 8.58747 16.6202 8.06247 16.1777L6.87747 15.1577C6.65247 14.9627 6.23247 14.8052 5.93247 14.8052H4.63497C3.83997 14.8052 3.18747 14.1527 3.18747 13.3577V12.0752C3.18747 11.7827 3.02997 11.3627 2.84247 11.1377L1.82997 9.94523C1.39497 9.42773 1.39497 8.58773 1.82997 8.07023L2.84247 6.87773C3.02997 6.65273 3.18747 6.23273 3.18747 5.94023V4.65023C3.18747 3.85523 3.83997 3.20273 4.63497 3.20273H5.93247C6.22497 3.20273 6.65247 3.04523 6.87747 2.85023L8.06247 1.83773Z" stroke="#606270" stroke-width="1.5" stroke-linecap="round" stroke-linejoin="round"/>
</g>
</g>
</svg>
