<svg width="40" height="40" viewBox="0 0 40 40" fill="none" xmlns="http://www.w3.org/2000/svg">
<g clip-path="url(#clip0_1_333)">
<path fill-rule="evenodd" clip-rule="evenodd" d="M20 40C31.0457 40 40 31.0457 40 20C40 8.95431 31.0457 0 20 0C8.95431 0 0 8.95431 0 20C0 31.0457 8.95431 40 20 40Z" fill="url(#paint0_linear_1_333)"/>
<path fill-rule="evenodd" clip-rule="evenodd" d="M20.2 30.4334C18.3062 30.4334 16.5272 29.9494 14.9794 29.0999L9 31L10.9492 25.2502C9.96605 23.6351 9.39967 21.7412 9.39967 19.7167C9.39967 13.798 14.235 9 20.2002 9C26.1646 9 31 13.798 31 19.7167C31 25.6354 26.1649 30.4334 20.2 30.4334ZM20.2 10.7067C15.1928 10.7067 11.1198 14.7486 11.1198 19.7167C11.1198 21.6881 11.7625 23.5139 12.8493 24.9994L11.715 28.3453L15.2042 27.2363C16.6382 28.1776 18.3556 28.7267 20.2 28.7267C25.2064 28.7267 29.2801 24.685 29.2801 19.7169C29.2801 14.7488 25.2064 10.7067 20.2 10.7067ZM25.6535 22.1848C25.587 22.0756 25.4105 22.0096 25.1463 21.8783C24.8813 21.747 23.5794 21.1112 23.3372 21.024C23.0942 20.9365 22.9174 20.8922 22.7412 21.1552C22.565 21.4183 22.0575 22.0096 21.9028 22.1848C21.7483 22.3604 21.594 22.3824 21.3293 22.2508C21.0648 22.1196 20.2117 21.8421 19.2002 20.9472C18.4133 20.251 17.8819 19.3916 17.7276 19.1283C17.5732 18.8655 17.7113 18.7235 17.8438 18.5927C17.9628 18.4749 18.1085 18.286 18.241 18.1327C18.3735 17.9792 18.4175 17.8699 18.5055 17.6944C18.594 17.5191 18.5497 17.3659 18.4835 17.2341C18.4172 17.1028 17.8875 15.8102 17.667 15.2842C17.4465 14.7586 17.2263 14.8461 17.0716 14.8461C16.9171 14.8461 16.7406 14.8241 16.5641 14.8241C16.3876 14.8241 16.1006 14.8899 15.8579 15.1527C15.6154 15.4157 14.9317 16.0512 14.9317 17.3436C14.9317 18.6362 15.8799 19.8851 16.0126 20.0601C16.1449 20.2352 17.8435 22.9739 20.5346 24.0258C23.2267 25.0774 23.2267 24.7266 23.7121 24.6828C24.1969 24.6391 25.2778 24.0475 25.499 23.4342C25.7193 22.8204 25.7193 22.2944 25.6535 22.1848Z" fill="white"/>
</g>
<defs>
<linearGradient id="paint0_linear_1_333" x1="19.9998" y1="56" x2="19.9998" y2="-0.00275053" gradientUnits="userSpaceOnUse">
<stop stop-color="#20B038"/>
<stop offset="1" stop-color="#60D66A"/>
</linearGradient>
<clipPath id="clip0_1_333">
<rect width="40" height="40" fill="white"/>
</clipPath>
</defs>
</svg>
