<svg width="62" height="63" viewBox="0 0 62 63" fill="none" xmlns="http://www.w3.org/2000/svg">
<path d="M10.0903 50.0001L13.0435 39.213C11.2224 36.063 10.2708 32.4782 10.2708 28.8114C10.2708 17.3352 19.6142 8.00006 31.0904 8.00006C36.6603 8.00006 41.8857 10.1739 45.815 14.1032C49.7444 18.0407 51.91 23.2661 51.91 28.8278C51.9018 40.304 42.5666 49.6391 31.0904 49.6391H31.0822C27.5959 49.6391 24.1751 48.7614 21.1318 47.1044L10.0903 50.0001ZM21.6404 43.3391L22.272 43.7165C24.9298 45.2915 27.9732 46.1282 31.0822 46.1282H31.0904C40.6307 46.1282 48.3908 38.368 48.3908 28.8278C48.3908 24.2094 46.5943 19.8618 43.3295 16.5887C40.0646 13.3157 35.717 11.5192 31.0986 11.5192C21.5501 11.5192 13.79 19.2794 13.79 28.8196C13.79 32.0844 14.7005 35.2672 16.4314 38.0235L16.8415 38.6797L15.0943 45.0618L21.6404 43.3391Z" fill="white"/>
<path d="M10.8203 49.27L13.675 38.8602C11.9113 35.8169 10.9844 32.3552 10.9844 28.8196C10.9926 17.7372 20.0078 8.73016 31.0821 8.73016C36.4552 8.73016 41.5083 10.822 45.2982 14.62C49.0962 18.4181 51.188 23.463 51.1798 28.836C51.1716 39.9102 42.1563 48.9255 31.0821 48.9255H31.0739C27.7106 48.9255 24.4047 48.0805 21.468 46.4809L10.8203 49.27Z" fill="url(#paint0_linear_1_1371)"/>
<g filter="url(#filter0_d_1_1371)">
<path d="M10.0903 50.0001L13.0435 39.213C11.2224 36.063 10.2708 32.4782 10.2708 28.8114C10.2708 17.3352 19.6142 8.00006 31.0904 8.00006C36.6603 8.00006 41.8857 10.1739 45.815 14.1032C49.7444 18.0407 51.91 23.2661 51.91 28.8278C51.9018 40.304 42.5666 49.6391 31.0904 49.6391H31.0822C27.5959 49.6391 24.1751 48.7614 21.1318 47.1044L10.0903 50.0001ZM21.6404 43.3391L22.272 43.7165C24.9298 45.2915 27.9732 46.1282 31.0822 46.1282H31.0904C40.6307 46.1282 48.3908 38.368 48.3908 28.8278C48.3908 24.2094 46.5943 19.8618 43.3295 16.5887C40.0646 13.3157 35.717 11.5192 31.0986 11.5192C21.5501 11.5192 13.79 19.2794 13.79 28.8196C13.79 32.0844 14.7005 35.2672 16.4314 38.0235L16.8415 38.6797L15.0943 45.0618L21.6404 43.3391Z" fill="url(#paint1_linear_1_1371)"/>
</g>
<path fill-rule="evenodd" clip-rule="evenodd" d="M25.8815 20.1078C25.4878 19.2383 25.0776 19.2219 24.7085 19.2055C24.4049 19.1891 24.0604 19.1973 23.7077 19.1973C23.3631 19.1973 22.7971 19.3286 22.3213 19.8453C21.8456 20.3621 20.5002 21.6254 20.5002 24.1848C20.5002 26.7442 22.3624 29.2215 22.6249 29.5661C22.8874 29.9106 26.226 35.3328 31.5089 37.4164C35.9058 39.1473 36.7999 38.8028 37.7515 38.7207C38.703 38.6387 40.8277 37.4657 41.2624 36.2516C41.6972 35.0375 41.6972 33.9957 41.5659 33.7825C41.4347 33.5692 41.0902 33.4379 40.5652 33.1754C40.0484 32.9129 37.489 31.6578 37.0132 31.4856C36.5374 31.3133 36.1929 31.2231 35.8401 31.7481C35.4956 32.2649 34.4948 33.4379 34.1913 33.7825C33.8878 34.127 33.5843 34.1762 33.0675 33.9137C32.5507 33.6512 30.869 33.1016 28.8839 31.3297C27.3335 29.9516 26.2917 28.2453 25.9882 27.7286C25.6846 27.2118 25.9553 26.9246 26.2178 26.6703C26.4475 26.4407 26.7346 26.0633 26.9971 25.7598C27.2596 25.4563 27.3417 25.243 27.5139 24.8903C27.6862 24.5457 27.6042 24.2422 27.4729 23.9797C27.3581 23.709 26.3491 21.1414 25.8815 20.1078Z" fill="white"/>
<defs>
<filter id="filter0_d_1_1371" x="0.142948" y="0.263207" width="61.7143" height="61.8948" filterUnits="userSpaceOnUse" color-interpolation-filters="sRGB">
<feFlood flood-opacity="0" result="BackgroundImageFix"/>
<feColorMatrix in="SourceAlpha" type="matrix" values="0 0 0 0 0 0 0 0 0 0 0 0 0 0 0 0 0 0 127 0" result="hardAlpha"/>
<feOffset dy="2.21053"/>
<feGaussianBlur stdDeviation="4.97369"/>
<feComposite in2="hardAlpha" operator="out"/>
<feColorMatrix type="matrix" values="0 0 0 0 0 0 0 0 0 0 0 0 0 0 0 0 0 0 0.13 0"/>
<feBlend mode="normal" in2="BackgroundImageFix" result="effect1_dropShadow_1_1371"/>
<feBlend mode="normal" in="SourceGraphic" in2="effect1_dropShadow_1_1371" result="shape"/>
</filter>
<linearGradient id="paint0_linear_1_1371" x1="30.9999" y1="49.2734" x2="30.9999" y2="8.72737" gradientUnits="userSpaceOnUse">
<stop stop-color="#20B038"/>
<stop offset="1" stop-color="#60D66A"/>
</linearGradient>
<linearGradient id="paint1_linear_1_1371" x1="31.0002" y1="50.0001" x2="31.0002" y2="8.00006" gradientUnits="userSpaceOnUse">
<stop stop-color="#F9F9F9"/>
<stop offset="1" stop-color="white"/>
</linearGradient>
</defs>
</svg>
