<svg width="24" height="24" viewBox="0 0 24 24" fill="none" xmlns="http://www.w3.org/2000/svg">
<path d="M1.04712 23L2.594 17.3496C1.64009 15.6996 1.14165 13.8219 1.14165 11.9012C1.14165 5.88984 6.03581 1 12.0472 1C14.9648 1 17.7019 2.13867 19.7601 4.19688C21.8183 6.25938 22.9527 8.99648 22.9527 11.9098C22.9484 17.9211 18.0585 22.8109 12.0472 22.8109H12.0429C10.2167 22.8109 8.42488 22.3512 6.83074 21.4832L1.04712 23ZM7.09714 19.5109L7.428 19.7086C8.8202 20.5336 10.4143 20.9719 12.0429 20.9719H12.0472C17.0444 20.9719 21.1093 16.907 21.1093 11.9098C21.1093 9.49062 20.1683 7.21328 18.4581 5.49883C16.748 3.78437 14.4706 2.84336 12.0515 2.84336C7.04988 2.84336 2.98502 6.9082 2.98502 11.9055C2.98502 13.6156 3.46197 15.2828 4.36862 16.7266L4.58346 17.0703L3.66822 20.4133L7.09714 19.5109Z" fill="white"/>
<path fill-rule="evenodd" clip-rule="evenodd" d="M9.31876 7.34216C9.11251 6.88669 8.89767 6.8781 8.70431 6.86951C8.54532 6.86091 8.36485 6.86521 8.18009 6.86521C7.99962 6.86521 7.70313 6.93396 7.45391 7.20466C7.20469 7.47537 6.5 8.13708 6.5 9.47771C6.5 10.8183 7.47539 12.116 7.6129 12.2965C7.7504 12.4769 9.49923 15.3172 12.2664 16.4086C14.5696 17.3152 15.0379 17.1347 15.5364 17.0918C16.0348 17.0488 17.1477 16.4344 17.3754 15.7984C17.6032 15.1625 17.6032 14.6168 17.5344 14.5051C17.4657 14.3933 17.2852 14.3246 17.0102 14.1871C16.7395 14.0496 15.3989 13.3922 15.1496 13.3019C14.9004 13.2117 14.72 13.1644 14.5352 13.4394C14.3547 13.7101 13.8305 14.3246 13.6715 14.5051C13.5125 14.6855 13.3535 14.7113 13.0828 14.5738C12.8121 14.4363 11.9313 14.1484 10.8914 13.2203C10.0793 12.4984 9.53361 11.6047 9.37462 11.334C9.21564 11.0633 9.35743 10.9129 9.49493 10.7797C9.61525 10.6594 9.76564 10.4617 9.90314 10.3027C10.0406 10.1437 10.0836 10.032 10.1738 9.84724C10.2641 9.66677 10.2211 9.50779 10.1524 9.37029C10.0922 9.22849 9.56369 7.88357 9.31876 7.34216Z" fill="white"/>
</svg>
