<svg width="875" height="875" viewBox="0 0 875 875" fill="none" xmlns="http://www.w3.org/2000/svg">
<path d="M617.959 160.23L617.68 160.104L617.343 159.825C616.851 159.519 616.375 159.177 615.868 158.905L615.798 158.874C615.798 158.874 615.589 158.779 615.5 158.696C615.201 158.519 614.903 158.342 614.621 158.13L613.881 157.627L613.742 157.564L613.529 157.384L613.389 157.321L613.285 157.273L613.215 157.242L612.971 157.131L612.812 157.017L612.638 156.938C611.724 156.356 610.759 155.793 609.81 155.196C608.985 154.696 608.125 154.18 607.265 153.665C606.932 153.472 606.599 153.279 606.301 153.102L606.231 153.07C605.178 152.425 604.143 151.831 603.109 151.236C602.338 150.803 601.532 150.354 600.726 149.905L600.656 149.874L599.885 149.441C599.571 149.298 599.289 149.086 598.94 148.928C598.591 148.77 598.273 148.543 597.959 148.4C597.785 148.321 597.61 148.242 597.452 148.129C597.172 148.002 596.944 147.857 596.681 147.695C596.366 147.553 596.033 147.36 595.735 147.183C595.595 147.12 595.421 147.041 595.281 146.978C594.212 146.368 593.092 145.776 591.763 145.09C591.135 144.806 590.608 144.483 590.05 144.231C589.456 143.962 588.895 143.624 588.317 143.32L588.247 143.289L588.178 143.257L588.108 143.225C588.108 143.225 587.933 143.146 587.864 143.115C587.724 143.052 587.584 142.988 587.445 142.925L587.27 142.846L587.061 142.751C586.414 142.416 585.732 142.065 585.084 141.73C584.805 141.604 584.526 141.478 584.212 141.335C583.006 140.748 581.871 140.191 580.7 139.619C580.525 139.54 580.316 139.445 580.142 139.366L579.723 139.177C578.746 138.735 577.819 138.273 576.842 137.831L576.284 137.578L576.04 137.467L575.028 137.009C574.749 136.883 574.434 136.741 574.155 136.614C573.946 136.519 573.737 136.425 573.527 136.33C573.318 136.235 573.108 136.14 572.899 136.045C572.62 135.919 572.341 135.793 572.027 135.65L570.247 134.845C512.587 109.791 448.467 108.387 389.746 130.999C330.941 153.615 284.258 197.656 258.269 255.061C254.145 264.169 250.63 273.51 247.703 282.949C246.358 287.218 245.119 291.535 244.035 295.88C275.452 274.32 311.088 259.506 349.165 252.398C362.952 249.81 376.832 248.315 390.685 247.901C393.801 247.798 396.921 247.781 400.04 247.763C400.383 247.75 400.725 247.737 401.052 247.759C439.085 247.99 476.691 256.227 511.971 272.2C563.303 295.441 605.578 333.208 634.268 381.476C640.85 392.572 646.605 404.008 651.533 415.784C667.594 453.962 674.808 495.24 672.454 536.939C671.741 549.567 670.184 562.108 667.745 574.459C663.687 595.034 657.227 615.152 648.459 634.52C627.936 679.85 596.179 717.95 556.431 745.746C556.431 745.746 556.482 745.727 556.533 745.708C557.04 745.517 557.546 745.326 558.069 745.1C558.728 744.852 559.403 744.569 560.078 744.285C560.281 744.209 560.483 744.133 560.702 744.021L560.854 743.964L560.87 743.929L561.041 743.923C561.615 743.678 562.239 743.413 562.863 743.149C563.522 742.901 564.146 742.637 564.786 742.338L564.856 742.37L564.973 742.297L565.125 742.239C565.125 742.239 565.344 742.128 565.445 742.09C566.171 741.788 566.896 741.485 567.637 741.148L567.79 741.091L568.734 740.677C568.734 740.677 569.054 740.528 569.206 740.471C570.251 740.019 571.297 739.567 572.307 739.1C573.47 738.575 574.582 738.069 575.694 737.563C576.065 737.395 576.4 737.21 576.771 737.042C577.528 736.67 578.27 736.333 579.062 735.976L580.56 735.267L581.368 734.876L581.992 734.612L582.312 734.462C583.221 734.033 584.08 733.623 584.919 733.162L585.071 733.105L585.087 733.07L585.223 733.047L585.325 733.009C585.965 732.71 586.62 732.376 587.241 732.027L587.292 732.008C589.345 731.003 591.445 729.893 593.51 728.768L593.596 728.764C594.15 728.469 594.705 728.173 595.259 727.877L595.93 727.509L596.333 727.27C596.333 727.27 596.501 727.178 596.618 727.105C596.618 727.105 596.669 727.086 596.719 727.067L596.821 727.029L596.836 726.994L596.938 726.956L598.062 726.329L598.465 726.091L599.991 725.226C599.991 725.226 600.327 725.042 600.46 724.934C600.745 724.769 601.03 724.603 601.315 724.438L601.936 724.089L601.952 724.054C602.573 723.704 603.143 723.373 603.764 723.024C603.881 722.951 604.049 722.859 604.201 722.801L604.369 722.709L604.537 722.617C605.978 721.756 607.419 720.894 608.86 720.033L608.876 719.998C609.548 719.629 610.184 719.245 610.837 718.825C611.005 718.733 611.138 718.625 611.305 718.533L611.356 718.514C612.294 717.929 613.231 717.344 614.184 716.725C614.2 716.69 614.302 716.652 614.352 716.633L614.419 716.579L614.45 716.509C614.704 716.413 614.888 716.286 615.087 716.124C615.755 715.67 616.443 715.266 617.111 714.812L617.228 714.739L617.345 714.666C618.349 714.027 619.318 713.373 620.338 712.699L620.455 712.626L620.623 712.534C621.643 711.86 622.663 711.186 623.699 710.478L625.301 709.353C625.586 709.188 625.786 709.026 626.036 708.845C626.337 708.645 626.653 708.41 626.954 708.209L626.986 708.14L627.002 708.105C627.185 707.978 627.369 707.851 627.553 707.724C628.287 707.215 628.987 706.691 629.671 706.202L630.222 705.821C630.472 705.639 630.723 705.458 630.957 705.312C631.625 704.858 632.274 704.353 632.908 703.883C632.939 703.813 633.041 703.775 633.091 703.756C637.392 700.573 641.67 697.253 645.859 693.852C645.941 693.763 646.059 693.69 646.125 693.636L646.141 693.601L646.188 693.496C647.173 692.807 648.069 692.035 648.981 691.228L651.372 689.199C651.372 689.199 651.539 689.107 651.606 689.053C651.622 689.018 651.688 688.964 651.739 688.945L651.77 688.875L651.805 688.891L651.821 688.856C654.661 686.484 657.162 684.21 659.531 682.044L659.562 681.974L659.664 681.936L659.695 681.867L659.762 681.813C660.341 681.276 660.905 680.774 661.484 680.238L661.715 680.006L661.88 679.828L661.895 679.793L662.905 678.863C663.269 678.523 663.633 678.183 663.997 677.843C664.162 677.666 664.346 677.538 664.51 677.361C666.973 674.986 668.99 673.039 670.823 671.22L671.912 670.115L672.06 669.972L673.2 668.848C676.185 665.785 679.249 662.546 682.208 659.261L682.224 659.226L682.24 659.191C682.271 659.121 682.338 659.067 682.389 659.048C682.965 658.426 683.506 657.788 684.082 657.166C684.674 656.508 685.215 655.87 685.807 655.213C686.152 654.823 686.497 654.432 686.826 654.077C688.073 652.623 689.237 651.258 690.351 649.912L690.383 649.842L690.399 649.807L690.43 649.738C690.595 649.56 690.724 649.366 690.889 649.189C691.152 648.887 691.364 648.605 691.626 648.303L691.791 648.125L691.987 647.878C694.262 645.081 696.484 642.218 698.721 639.321C700.043 637.607 701.315 635.912 702.603 634.182C704.77 631.253 706.887 628.342 708.949 625.366C709.712 624.239 710.458 623.147 711.22 622.021L711.252 621.951L711.268 621.916C712.014 620.825 712.777 619.698 713.504 618.556C713.827 618.029 714.184 617.518 714.507 616.991C714.927 616.341 715.364 615.655 715.769 615.04C717.821 611.806 719.82 608.506 721.749 605.174C725.496 598.755 729.065 592.172 732.391 585.478C734.236 581.772 736.028 578 737.735 574.231C740.626 567.845 743.273 561.348 745.764 554.823C746.03 554.145 746.295 553.466 746.576 552.752C749.279 545.482 751.722 538.136 753.889 530.749C754.283 529.414 754.626 528.098 755.021 526.762C755.021 526.762 755.052 526.693 755.068 526.658C755.068 526.658 755.068 526.658 755.084 526.623L618.029 160.262L617.959 160.23Z" fill="white" fill-opacity="0.6"/>
<path d="M256.879 714.156L257.088 714.251L257.301 714.431C257.688 714.69 258.11 714.966 258.513 715.19L258.618 715.237L258.792 715.316L258.967 715.395C259.478 715.753 259.988 716.11 260.515 716.433L260.899 716.607L261.236 716.885C261.41 716.964 261.569 717.078 261.727 717.192L263.517 718.254L264.729 719.014C265.906 719.757 267.011 720.383 268.134 721.06L268.308 721.139C269.362 721.784 270.361 722.362 271.396 722.957C272.271 723.437 273.062 723.921 273.833 724.354L274.673 724.819C275.235 725.158 275.812 725.461 276.39 725.765L276.599 725.859L276.809 725.954C277.545 726.372 278.281 726.789 278.998 727.156L279.312 727.298C280.381 727.908 281.485 728.534 282.796 729.169L282.865 729.201C284.02 729.808 285.14 730.399 286.225 730.974L286.574 731.132L287.028 731.338L287.482 731.543C288.392 732.04 289.354 732.517 290.315 732.994C291.625 733.629 292.831 734.217 294.071 734.821L294.246 734.9L294.804 735.153C295.711 735.563 296.619 735.974 297.526 736.385L298.712 736.922C299.48 737.27 300.283 737.633 301.016 737.965C301.818 738.328 302.656 738.707 303.458 739.071L304.296 739.45C361.956 764.504 426.041 765.892 484.78 743.33C543.586 720.714 590.285 676.638 616.258 619.269C622.262 606.008 627.016 592.35 630.492 578.45C599.075 600.01 563.388 614.843 525.327 621.916C470.126 632.203 413.854 625.354 362.521 602.114C311.189 578.873 268.914 541.106 240.224 492.837C212.195 445.709 198.981 391.958 202.038 337.375C203.912 303.701 211.972 270.852 226.033 239.794C246.556 194.464 278.297 156.399 318.061 128.568L317.959 128.606L317.706 128.701L317.452 128.797C317.164 128.877 316.911 128.972 316.676 129.118L315.814 129.443C315.105 129.71 314.43 129.993 313.72 130.261L313.619 130.299L313.502 130.372C312.37 130.827 310.986 131.378 309.722 131.941L309.554 132.033L309.351 132.109C308.473 132.469 307.647 132.809 306.769 133.169L306.753 133.204L306.617 133.226C305.115 133.85 303.632 134.524 302.15 135.198L302.118 135.268L301.982 135.291C300.987 135.723 300.027 136.172 299.032 136.604L298.864 136.696L298.225 136.995L298.209 137.03L295.395 138.322L294.822 138.567L294.67 138.624C293.913 138.996 293.171 139.333 292.449 139.721L292.18 139.851L291.876 139.966C291.201 140.249 290.479 140.637 289.706 141.044L289.437 141.174L289.167 141.305C288.578 141.584 287.989 141.864 287.469 142.176L287.301 142.268L287.134 142.36C285.116 143.381 283.066 144.471 281.017 145.562C280.579 145.784 280.126 146.042 279.689 146.264C279.186 146.541 278.682 146.817 278.178 147.094C277.893 147.259 277.624 147.39 277.339 147.555L276.87 147.847C276.081 148.289 275.242 148.75 274.453 149.192L273.715 149.615C273.313 149.853 272.911 150.091 272.524 150.295L272.356 150.387L272.188 150.479C271.583 150.794 270.997 151.16 270.427 151.49L269.791 151.875C268.365 152.701 266.924 153.562 265.467 154.459L265.35 154.532L265.233 154.605C264.596 154.989 263.959 155.374 263.358 155.774L262.889 156.066L261.35 157.052L259.709 158.075C258.889 158.586 258.002 159.152 257.166 159.699C256.279 160.264 255.443 160.811 254.607 161.357L253.738 163.277L248.944 165.227C248.393 165.608 247.807 165.974 247.275 166.406C246.173 167.168 245.106 167.947 244.039 168.725L243.921 168.798L243.804 168.871C242.937 169.487 242.119 170.085 241.271 170.752C236.752 174.046 232.341 177.473 228.069 180.964C227.123 181.755 226.192 182.51 225.261 183.266C225.128 183.374 224.995 183.482 224.811 183.609C223.966 184.362 223.101 185.064 222.221 185.801C219.615 188.027 217.013 190.339 214.496 192.647L214.464 192.717L214.398 192.771C213.768 193.327 213.122 193.918 212.527 194.489C212.362 194.667 212.147 194.864 211.932 195.061C211.121 195.829 210.311 196.597 209.5 197.366C207.515 199.242 205.401 201.313 203.223 203.522L203.191 203.592L203.09 203.63C202.413 204.291 201.735 204.951 201.077 205.662L201.029 205.767L200.912 205.84C197.778 209.047 194.73 212.25 191.92 215.393L191.857 215.532L191.739 215.605C191.163 216.228 190.587 216.85 190.03 217.523L189.983 217.628L189.901 217.716C189.046 218.675 188.192 219.634 187.337 220.592L186.631 221.408C185.631 222.595 184.647 223.748 183.663 224.9C183.122 225.538 182.647 226.122 182.172 226.706L182.093 226.881C176.065 234.159 170.357 241.751 165.131 249.392L165.084 249.497L165.002 249.586C164.369 250.519 163.67 251.506 162.844 252.772L162.781 252.912C161.921 254.162 161.241 255.2 160.643 256.149L160.564 256.323L160.45 256.482C159.719 257.539 159.042 258.662 158.331 259.769L158.283 259.874C150.041 272.878 142.665 286.569 136.283 300.667C129.9 314.765 124.463 329.375 120.129 344.149L120.002 344.428C119.706 345.639 119.34 346.819 119.025 347.98L118.946 348.154L118.933 348.275L256.644 713.839C256.644 713.839 256.923 713.965 257.066 714.114L256.879 714.156Z" fill="white" fill-opacity="0.6"/>
</svg>
