<svg width="405" height="405" viewBox="0 0 405 405" fill="none" xmlns="http://www.w3.org/2000/svg">
<path d="M2.10922 171.222V171.41L2.03892 171.667C1.99205 172.019 1.92173 172.37 1.8983 172.722V172.769C1.8983 172.769 1.8983 172.909 1.87486 172.98C1.85143 173.191 1.82799 173.402 1.78112 173.612L1.68738 174.151V174.245L1.64051 174.409V174.503V174.573V174.62V174.784L1.61707 174.901V175.019C1.52333 175.675 1.45302 176.354 1.35928 177.034C1.28897 177.62 1.21866 178.229 1.14835 178.839C1.12492 179.073 1.10148 179.307 1.07805 179.518V179.565C0.984302 180.315 0.913998 181.042 0.843691 181.768C0.796819 182.307 0.749944 182.87 0.703072 183.432V183.479L0.656204 184.018C0.656204 184.229 0.609332 184.44 0.609332 184.674C0.609332 184.909 0.562459 185.143 0.562459 185.354C0.562459 185.471 0.562458 185.588 0.539023 185.705C0.539023 185.893 0.515586 186.057 0.49215 186.244C0.49215 186.455 0.468717 186.69 0.445282 186.901C0.445282 186.994 0.445282 187.111 0.445282 187.205C0.374974 187.955 0.328103 188.729 0.281232 189.643C0.281232 190.064 0.234359 190.439 0.234359 190.814C0.234359 191.213 0.187486 191.611 0.16405 192.01V192.056V192.103V192.15C0.16405 192.15 0.16405 192.267 0.16405 192.314C0.16405 192.408 0.16405 192.502 0.16405 192.595V192.713V192.853C0.140614 193.299 0.117177 193.767 0.0937409 194.213C0.0937409 194.4 0.0937409 194.588 0.0937409 194.798C0.0703051 195.619 0.0468722 196.392 0.0234363 197.189C0.0234363 197.306 0.0234363 197.447 0.0234363 197.564V197.845C0.0234363 198.501 0 199.134 0 199.79V200.165V200.329V201.009C0 201.196 0 201.407 0 201.595C0 201.735 0 201.876 0 202.017C0 202.157 0 202.298 0 202.438C0 202.626 0 202.813 0 203.024V204.22C0.585895 242.678 15.9832 278.769 43.4031 305.79C70.8464 332.859 107.172 347.764 145.724 347.764C151.841 347.764 157.934 347.366 163.933 346.616C166.652 346.287 169.371 345.889 172.066 345.397C152.122 333.327 134.873 317.204 121.304 297.775C116.382 290.745 112.047 283.386 108.32 275.769C107.477 274.058 106.68 272.324 105.883 270.59C105.789 270.402 105.695 270.215 105.625 270.027C96.1571 248.771 91.259 225.734 91.259 202.04C91.259 167.566 101.641 134.475 121.304 106.305C125.827 99.8365 130.748 93.7432 136.068 88.0249C153.294 69.4403 174.48 55.0038 198.314 45.7936C205.532 43.0047 212.914 40.708 220.414 38.9503C232.905 36.0208 245.748 34.5444 258.755 34.5444C289.198 34.5444 318.446 42.6297 343.967 57.7693C343.967 57.7693 343.944 57.7458 343.92 57.7224C343.686 57.488 343.452 57.2537 343.194 57.0193C342.889 56.7147 342.561 56.41 342.233 56.1053C342.139 56.0116 342.046 55.9178 341.928 55.8241L341.858 55.7538H341.835L341.788 55.66C341.507 55.4022 341.202 55.121 340.897 54.8398C340.593 54.5351 340.288 54.2539 339.96 53.9727V53.9258L339.889 53.8789L339.819 53.8086C339.819 53.8086 339.702 53.7149 339.655 53.668C339.304 53.3399 338.952 53.0118 338.577 52.6837L338.507 52.6134L338.038 52.1915C338.038 52.1915 337.874 52.0509 337.804 51.9806C337.288 51.5119 336.773 51.0432 336.257 50.5979C335.671 50.0823 335.109 49.5902 334.546 49.098C334.359 48.934 334.171 48.7934 333.984 48.6293C333.585 48.3012 333.21 47.9731 332.812 47.6216L332.039 46.9654L331.617 46.6138L331.312 46.3326L331.148 46.192C330.679 45.7936 330.234 45.4186 329.765 45.0671L329.695 44.9967H329.672L329.625 44.9264L329.578 44.8796C329.25 44.5983 328.898 44.3171 328.547 44.0593L328.523 44.0359C327.445 43.1453 326.297 42.2548 325.148 41.3876L325.125 41.3408C324.82 41.1064 324.516 40.872 324.211 40.6377L323.836 40.3565L323.602 40.1924C323.602 40.1924 323.508 40.1221 323.438 40.0752C323.438 40.0752 323.414 40.0518 323.391 40.0284L323.344 39.9815H323.32L323.274 39.9346L322.641 39.4659L322.406 39.3018L321.539 38.6691C321.539 38.6691 321.352 38.5285 321.258 38.4816C321.094 38.3644 320.93 38.2472 320.766 38.1301L320.414 37.8723H320.391C320.039 37.6145 319.711 37.3801 319.36 37.1223C319.289 37.0754 319.196 37.0051 319.125 36.9348L319.032 36.8645L318.938 36.7942C318.094 36.2083 317.251 35.6224 316.407 35.0365H316.383C316.008 34.7553 315.633 34.4975 315.235 34.2397C315.141 34.1694 315.048 34.1225 314.954 34.0522L314.93 34.0288C314.368 33.6538 313.805 33.2788 313.22 32.9039C313.196 32.9039 313.149 32.857 313.126 32.8336L313.079 32.8101H313.032C312.915 32.693 312.798 32.6226 312.657 32.5523C312.235 32.2945 311.837 32.0133 311.415 31.7555L311.345 31.7086L311.274 31.6618C310.665 31.2634 310.056 30.8884 309.423 30.49L309.353 30.4431L309.259 30.3728C308.626 29.9744 307.993 29.576 307.337 29.1776L306.306 28.5683C306.142 28.4511 306.001 28.3808 305.837 28.287C305.65 28.1698 305.439 28.0527 305.251 27.9355H305.204H305.181C305.064 27.8652 304.947 27.7949 304.83 27.7246C304.361 27.4433 303.892 27.1855 303.447 26.9277L303.095 26.7168C302.931 26.6231 302.767 26.5293 302.627 26.4356C302.205 26.1778 301.759 25.9434 301.338 25.7091C301.291 25.7091 301.244 25.6622 301.22 25.6388C298.361 24.0451 295.432 22.4984 292.479 21.0219C292.409 20.9985 292.338 20.9516 292.291 20.9282H292.268H292.198C291.565 20.5532 290.909 20.2485 290.229 19.9439L288.495 19.1236C288.495 19.1236 288.401 19.0533 288.354 19.0299C288.331 19.0299 288.284 19.0064 288.26 18.983H288.214V18.9596H288.19C286.151 17.9753 284.253 17.155 282.448 16.3816H282.401L282.355 16.3348H282.308L282.261 16.3113C281.816 16.1238 281.394 15.9363 280.948 15.7489L280.761 15.6786L280.62 15.6317H280.597L279.824 15.3036C279.542 15.1864 279.261 15.0692 278.98 14.952C278.839 14.9052 278.722 14.8349 278.581 14.788C276.636 14.0146 275.043 13.3818 273.566 12.8194L272.676 12.4913L272.558 12.4444L271.644 12.0929C269.184 11.2023 266.606 10.3118 264.028 9.4915H264.004H263.981C263.934 9.4915 263.887 9.46807 263.864 9.44463C263.372 9.28058 262.879 9.13997 262.387 8.97591C261.872 8.81186 261.38 8.67125 260.864 8.5072C260.559 8.41346 260.255 8.31971 259.973 8.22597C258.849 7.89787 257.794 7.5932 256.763 7.31197H256.716H256.692H256.646C256.505 7.2651 256.364 7.24166 256.224 7.19479C255.989 7.12449 255.778 7.07761 255.544 7.00731L255.403 6.96043L255.216 6.91356C253.083 6.3511 250.927 5.83552 248.748 5.31993C247.459 5.01526 246.193 4.73403 244.904 4.4528C242.725 3.98409 240.569 3.53881 238.389 3.1404C237.569 2.99978 236.772 2.85917 235.952 2.71855H235.905H235.881C235.085 2.57794 234.264 2.43732 233.444 2.32014C233.069 2.27327 232.694 2.20297 232.319 2.15609C231.85 2.08579 231.358 2.01548 230.913 1.94517C228.593 1.61707 226.249 1.33584 223.906 1.10148C219.383 0.632767 214.813 0.304665 210.243 0.140615C207.712 0.0468716 205.157 0 202.626 0C198.337 0 194.048 0.164051 189.783 0.421845C189.338 0.44528 188.893 0.468716 188.424 0.492152C183.69 0.820253 178.979 1.31241 174.316 1.96861C173.472 2.08579 172.652 2.2264 171.808 2.34358C171.808 2.34358 171.761 2.34358 171.738 2.34358C171.738 2.34358 171.738 2.34358 171.714 2.34358L2.10922 171.175V171.222Z" fill="white" fill-opacity="0.1"/>
<path d="M401.948 232.694V232.553L401.994 232.389C402.041 232.108 402.088 231.804 402.112 231.522V231.452V231.335V231.218C402.182 230.843 402.252 230.468 402.299 230.093V229.835L402.369 229.577C402.369 229.46 402.393 229.343 402.416 229.226L402.557 227.96L402.674 227.093C402.791 226.249 402.862 225.476 402.955 224.679V224.562C403.049 223.812 403.119 223.109 403.19 222.382C403.237 221.773 403.307 221.211 403.354 220.672L403.401 220.086C403.448 219.687 403.471 219.289 403.494 218.89V218.75V218.609C403.541 218.094 403.588 217.578 403.612 217.086V216.875C403.682 216.125 403.752 215.352 403.776 214.461V214.414C403.822 213.617 403.869 212.844 403.916 212.094V211.86V211.555V211.25C403.963 210.618 403.987 209.961 404.01 209.305C404.033 208.415 404.057 207.594 404.08 206.751V206.633V206.258C404.08 205.649 404.08 205.04 404.08 204.43V203.634C404.08 203.118 404.08 202.579 404.08 202.087C404.08 201.548 404.08 200.985 404.08 200.446V199.884C403.494 161.426 388.097 125.358 360.701 98.3131C333.257 71.2448 296.908 56.3396 258.38 56.3396C249.474 56.3396 240.662 57.1364 232.038 58.7066C251.982 70.7761 269.254 86.9233 282.8 106.352C302.463 134.521 312.845 167.613 312.845 202.087C312.845 236.561 302.463 269.652 282.8 297.822C263.606 325.336 236.983 346.264 205.79 358.333C186.549 365.786 166.207 369.583 145.349 369.583C114.906 369.583 85.6814 361.497 60.1364 346.358L60.1832 346.405L60.3004 346.522L60.4176 346.639C60.5348 346.78 60.6519 346.897 60.7926 346.991L61.191 347.389C61.5191 347.717 61.8472 348.022 62.1753 348.35L62.2221 348.397L62.2924 348.444C62.8315 348.959 63.4877 349.592 64.1204 350.154L64.2142 350.225L64.3079 350.318C64.7298 350.717 65.1282 351.092 65.55 351.49H65.5735L65.6203 351.56C66.3468 352.24 67.0968 352.896 67.8467 353.553H67.8936L67.9405 353.623C68.4326 354.068 68.9248 354.49 69.4169 354.935L69.5107 355.006L69.8388 355.287H69.8622L71.2918 356.529L71.573 356.787L71.6433 356.857C72.0417 357.185 72.4167 357.513 72.8151 357.818L72.9557 357.935L73.0964 358.076C73.4245 358.38 73.8229 358.685 74.2447 359.013L74.3853 359.13L74.5259 359.247C74.8306 359.505 75.1353 359.763 75.4399 359.974L75.5337 360.044L75.6274 360.115C76.7055 360.982 77.8304 361.849 78.9553 362.716C79.1897 362.903 79.4474 363.091 79.6818 363.278C79.963 363.489 80.2443 363.7 80.5255 363.911C80.6895 364.028 80.8302 364.146 80.9942 364.263L81.2754 364.45C81.7207 364.778 82.1894 365.13 82.6347 365.458L83.0566 365.763C83.2909 365.927 83.5253 366.091 83.7362 366.255L83.8299 366.325L83.9237 366.395C84.2518 366.653 84.6033 366.888 84.9314 367.122L85.3064 367.38C86.1267 367.966 86.9704 368.551 87.8375 369.137L87.9078 369.184L87.9781 369.231C88.3531 369.489 88.728 369.747 89.103 369.981L89.3842 370.169L90.3217 370.778L91.306 371.434C91.7981 371.762 92.3372 372.114 92.8527 372.442C93.3918 372.793 93.9073 373.121 94.4229 373.45H95.7119L98.0086 375.629C98.3601 375.84 98.7117 376.074 99.0867 376.262C99.7897 376.684 100.493 377.082 101.196 377.48L101.266 377.527L101.337 377.574C101.899 377.902 102.438 378.207 103.024 378.512C106 380.199 109.023 381.793 112.047 383.293C112.726 383.621 113.383 383.949 114.039 384.277C114.132 384.324 114.226 384.371 114.343 384.441C114.976 384.722 115.585 385.027 116.218 385.332C118.117 386.222 120.062 387.089 121.983 387.909H122.03L122.077 387.933C122.546 388.144 123.038 388.355 123.507 388.542C123.647 388.589 123.811 388.659 123.975 388.73C124.608 388.987 125.241 389.245 125.874 389.503C127.421 390.136 129.108 390.792 130.889 391.448H130.936L130.983 391.495C131.522 391.706 132.061 391.917 132.623 392.104H132.694L132.764 392.151C135.342 393.089 137.896 393.979 140.357 394.753H140.451L140.521 394.8C141.013 394.964 141.505 395.128 142.021 395.268H142.091L142.162 395.292C142.912 395.526 143.662 395.76 144.412 395.995L145.044 396.182C145.958 396.44 146.849 396.698 147.739 396.956C148.232 397.096 148.677 397.213 149.122 397.331H149.239C154.817 398.854 160.488 400.12 166.066 401.104H166.136L166.207 401.127C166.886 401.244 167.613 401.385 168.527 401.526H168.621C169.535 401.69 170.285 401.807 170.964 401.901H171.081L171.199 401.924C171.972 402.065 172.769 402.158 173.566 402.276H173.636C182.963 403.588 192.455 404.244 201.923 404.244C211.391 404.244 220.906 403.588 230.233 402.276H230.421C231.171 402.135 231.921 402.041 232.647 401.924H232.764L232.835 401.901L401.83 232.905C401.83 232.905 401.83 232.717 401.877 232.6L401.948 232.694Z" fill="white" fill-opacity="0.1"/>
</svg>
