<svg width="169" height="60" viewBox="0 0 169 60" fill="none" xmlns="http://www.w3.org/2000/svg">
<path d="M84.8145 38V22.252H95.6104V24.916H87.9941V28.6436H94.5684V31.3076H87.9941V38H84.8145ZM103.28 34.7451L106.31 34.2832C106.438 34.8704 106.7 35.318 107.094 35.626C107.488 35.9268 108.039 36.0771 108.748 36.0771C109.529 36.0771 110.116 35.9339 110.51 35.6475C110.775 35.4469 110.907 35.1784 110.907 34.8418C110.907 34.6126 110.836 34.4229 110.692 34.2725C110.542 34.1292 110.205 33.9967 109.683 33.875C107.248 33.3379 105.704 32.8473 105.053 32.4033C104.15 31.7874 103.699 30.9316 103.699 29.8359C103.699 28.8477 104.09 28.0169 104.87 27.3438C105.651 26.6706 106.861 26.334 108.501 26.334C110.062 26.334 111.222 26.5882 111.981 27.0967C112.741 27.6051 113.263 28.3571 113.55 29.3525L110.703 29.8789C110.581 29.4349 110.349 29.0947 110.005 28.8584C109.668 28.6221 109.185 28.5039 108.555 28.5039C107.76 28.5039 107.19 28.6149 106.847 28.8369C106.618 28.9945 106.503 29.1986 106.503 29.4492C106.503 29.6641 106.603 29.8467 106.804 29.9971C107.076 30.1976 108.014 30.4805 109.618 30.8457C111.229 31.2109 112.354 31.6585 112.991 32.1885C113.621 32.7256 113.937 33.474 113.937 34.4336C113.937 35.4792 113.5 36.3779 112.626 37.1299C111.752 37.8818 110.46 38.2578 108.748 38.2578C107.194 38.2578 105.962 37.9427 105.053 37.3125C104.15 36.6823 103.56 35.8265 103.28 34.7451ZM121.821 26.5918V28.998H119.759V33.5957C119.759 34.5267 119.777 35.071 119.812 35.2285C119.855 35.3789 119.945 35.5042 120.081 35.6045C120.224 35.7048 120.396 35.7549 120.597 35.7549C120.876 35.7549 121.281 35.6582 121.811 35.4648L122.068 37.8066C121.367 38.1074 120.572 38.2578 119.684 38.2578C119.139 38.2578 118.649 38.1683 118.212 37.9893C117.775 37.8031 117.453 37.5667 117.245 37.2803C117.045 36.9867 116.905 36.5928 116.826 36.0986C116.762 35.7477 116.729 35.0387 116.729 33.9717V28.998H115.344V26.5918H116.729V24.3252L119.759 22.5635V26.5918H121.821ZM131.425 38V36.292C131.009 36.9007 130.462 37.3805 129.781 37.7314C129.108 38.0824 128.396 38.2578 127.644 38.2578C126.877 38.2578 126.19 38.0895 125.581 37.7529C124.972 37.4163 124.532 36.9437 124.26 36.335C123.988 35.7262 123.852 34.8848 123.852 33.8105V26.5918H126.87V31.834C126.87 33.4382 126.924 34.4229 127.031 34.7881C127.146 35.1462 127.35 35.4326 127.644 35.6475C127.937 35.8551 128.31 35.959 128.761 35.959C129.276 35.959 129.738 35.8193 130.146 35.54C130.555 35.2536 130.834 34.9027 130.984 34.4873C131.135 34.0648 131.21 33.0371 131.21 31.4043V26.5918H134.229V38H131.425ZM147.828 38H145.024V36.3242C144.559 36.9759 144.007 37.4629 143.37 37.7852C142.74 38.1003 142.103 38.2578 141.458 38.2578C140.147 38.2578 139.023 37.7314 138.085 36.6787C137.154 35.6188 136.688 34.1436 136.688 32.2529C136.688 30.3193 137.143 28.8512 138.053 27.8486C138.962 26.8389 140.112 26.334 141.501 26.334C142.776 26.334 143.879 26.8639 144.81 27.9238V22.252H147.828V38ZM139.771 32.0488C139.771 33.2663 139.94 34.1471 140.276 34.6914C140.763 35.4792 141.444 35.873 142.317 35.873C143.012 35.873 143.603 35.5794 144.09 34.9922C144.577 34.3978 144.82 33.5133 144.82 32.3389C144.82 31.0283 144.584 30.0866 144.111 29.5137C143.639 28.9336 143.034 28.6436 142.296 28.6436C141.58 28.6436 140.978 28.93 140.491 29.5029C140.011 30.0687 139.771 30.9173 139.771 32.0488ZM150.814 25.0449V22.252H153.833V25.0449H150.814ZM150.814 38V26.5918H153.833V38H150.814ZM156.239 32.1348C156.239 31.1322 156.486 30.1618 156.98 29.2236C157.475 28.2855 158.173 27.5693 159.075 27.0752C159.985 26.5811 160.998 26.334 162.115 26.334C163.841 26.334 165.256 26.8962 166.358 28.0205C167.461 29.1377 168.013 30.5521 168.013 32.2637C168.013 33.9896 167.454 35.4219 166.337 36.5605C165.227 37.6921 163.827 38.2578 162.137 38.2578C161.091 38.2578 160.092 38.0215 159.14 37.5488C158.194 37.0762 157.475 36.3851 156.98 35.4756C156.486 34.5589 156.239 33.4453 156.239 32.1348ZM159.333 32.2959C159.333 33.4274 159.602 34.2939 160.139 34.8955C160.676 35.4971 161.338 35.7979 162.126 35.7979C162.914 35.7979 163.573 35.4971 164.103 34.8955C164.64 34.2939 164.908 33.4202 164.908 32.2744C164.908 31.1572 164.64 30.2979 164.103 29.6963C163.573 29.0947 162.914 28.7939 162.126 28.7939C161.338 28.7939 160.676 29.0947 160.139 29.6963C159.602 30.2979 159.333 31.1644 159.333 32.2959Z" fill="white"/>
<g clip-path="url(#clip0_1_751)">
<path d="M0.658298 25.4668V25.4943L0.647985 25.5321C0.641109 25.5837 0.630794 25.6352 0.627356 25.6868V25.6937C0.627356 25.6937 0.627356 25.7143 0.623918 25.7246C0.62048 25.7556 0.617042 25.7865 0.610166 25.8175L0.596414 25.8965V25.9103L0.589538 25.9343V25.9481V25.9584V25.9653V25.9894L0.5861 26.0065V26.0237C0.572348 26.12 0.562034 26.2197 0.548282 26.3194C0.537968 26.4054 0.527654 26.4947 0.51734 26.5841C0.513902 26.6185 0.510463 26.6529 0.507025 26.6838V26.6907C0.493273 26.8007 0.48296 26.9073 0.472646 27.0139C0.46577 27.093 0.458893 27.1755 0.452017 27.258V27.2649L0.445142 27.3439C0.445142 27.3749 0.438265 27.4058 0.438265 27.4402C0.438265 27.4746 0.431389 27.509 0.431389 27.5399C0.431389 27.5571 0.431389 27.5743 0.427951 27.5915C0.427951 27.619 0.424513 27.643 0.421075 27.6705C0.421075 27.7015 0.417637 27.7359 0.414199 27.7668C0.414199 27.7806 0.414199 27.7978 0.414199 27.8115C0.403885 27.9215 0.397009 28.035 0.390133 28.1691C0.390133 28.2309 0.383257 28.2859 0.383257 28.341C0.383257 28.3994 0.376381 28.4579 0.372943 28.5163V28.5232V28.5301V28.5369C0.372943 28.5369 0.372943 28.5541 0.372943 28.561C0.372943 28.5747 0.372943 28.5885 0.372943 28.6022V28.6194V28.6401C0.369505 28.7054 0.366067 28.7741 0.362629 28.8395C0.362629 28.867 0.362629 28.8945 0.362629 28.9254C0.359191 29.0458 0.355753 29.1592 0.352315 29.2761C0.352315 29.2933 0.352315 29.3139 0.352315 29.3311V29.3724C0.352315 29.4686 0.348877 29.5615 0.348877 29.6577V29.7127V29.7368V29.8365C0.348877 29.864 0.348877 29.8949 0.348877 29.9224C0.348877 29.9431 0.348877 29.9637 0.348877 29.9843C0.348877 30.005 0.348877 30.0256 0.348877 30.0462C0.348877 30.0737 0.348877 30.1012 0.348877 30.1322V30.3075C0.434827 35.9493 2.6936 41.2438 6.71608 45.2079C10.742 49.1788 16.0709 51.3653 21.7265 51.3653C22.6238 51.3653 23.5177 51.3069 24.3978 51.1969C24.7966 51.1488 25.1954 51.0903 25.5908 51.0181C22.665 49.2475 20.1347 46.8822 18.144 44.0321C17.4221 43.0007 16.786 41.9211 16.2394 40.8038C16.1156 40.5528 15.9987 40.2984 15.8818 40.044C15.8681 40.0165 15.8543 39.989 15.844 39.9615C14.4551 36.8432 13.7365 33.4636 13.7365 29.9878C13.7365 24.9304 15.2596 20.076 18.144 15.9435C18.8076 14.9946 19.5296 14.1007 20.31 13.2618C22.8369 10.5355 25.9449 8.41766 29.4414 7.06652C30.5003 6.65739 31.5833 6.32047 32.6834 6.06262C34.5159 5.63286 36.3999 5.41627 38.308 5.41627C42.774 5.41627 47.0646 6.60238 50.8086 8.82334C50.8086 8.82334 50.8052 8.8199 50.8018 8.81647C50.7674 8.78209 50.733 8.74771 50.6952 8.71333C50.6505 8.66863 50.6024 8.62394 50.5542 8.57924C50.5405 8.56549 50.5267 8.55174 50.5095 8.53799L50.4992 8.52767H50.4958L50.4889 8.51392C50.4476 8.4761 50.403 8.43485 50.3583 8.39359C50.3136 8.3489 50.2689 8.30764 50.2207 8.26638V8.25951L50.2104 8.25263L50.2001 8.24232C50.2001 8.24232 50.1829 8.22857 50.176 8.22169C50.1245 8.17356 50.0729 8.12542 50.0179 8.07729L50.0076 8.06698L49.9388 8.00509C49.9388 8.00509 49.9148 7.98447 49.9044 7.97415C49.8288 7.90539 49.7532 7.83663 49.6775 7.77131C49.5916 7.69567 49.5091 7.62347 49.4266 7.55128C49.399 7.52721 49.3715 7.50658 49.344 7.48252C49.2856 7.43438 49.2306 7.38625 49.1721 7.33468L49.0587 7.23842L48.9968 7.18685L48.9521 7.14559L48.928 7.12496C48.8593 7.06652 48.794 7.01151 48.7252 6.95994L48.7149 6.94962H48.7114L48.7046 6.93931L48.6977 6.93243C48.6496 6.89118 48.598 6.84992 48.5464 6.8121L48.543 6.80866C48.3848 6.67802 48.2164 6.54738 48.0479 6.42017L48.0445 6.41329C47.9998 6.37891 47.9551 6.34453 47.9104 6.31015L47.8554 6.2689L47.821 6.24483C47.821 6.24483 47.8072 6.23452 47.7969 6.22764C47.7969 6.22764 47.7935 6.2242 47.7901 6.22076L47.7832 6.21389H47.7797L47.7729 6.20701L47.68 6.13825L47.6457 6.11419L47.5185 6.02136C47.5185 6.02136 47.491 6.00073 47.4772 5.99385C47.4531 5.97667 47.4291 5.95948 47.405 5.94228L47.3534 5.90447H47.35C47.2984 5.86665 47.2503 5.83227 47.1987 5.79445C47.1884 5.78757 47.1747 5.77726 47.1643 5.76695L47.1506 5.75663L47.1368 5.74632C47.0131 5.66037 46.8893 5.57442 46.7655 5.48847H46.7621C46.7071 5.44721 46.6521 5.40939 46.5936 5.37157C46.5799 5.36126 46.5661 5.35438 46.5524 5.34407L46.5489 5.34063C46.4664 5.28562 46.3839 5.23062 46.298 5.17561C46.2945 5.17561 46.2876 5.16873 46.2842 5.16529L46.2773 5.16186H46.2705C46.2533 5.14466 46.2361 5.13435 46.2154 5.12404C46.1536 5.08622 46.0951 5.04496 46.0332 5.00714L46.0229 5.00027L46.0126 4.99339C45.9232 4.93495 45.8338 4.87994 45.741 4.82149L45.7307 4.81462L45.7169 4.8043C45.6241 4.74586 45.5313 4.68741 45.435 4.62896L45.2837 4.53957C45.2597 4.52238 45.2391 4.51207 45.215 4.49832C45.1875 4.48113 45.1565 4.46394 45.129 4.44675H45.1222H45.1187C45.1015 4.43643 45.0843 4.42612 45.0672 4.41581C44.9984 4.37455 44.9296 4.33673 44.8643 4.29891L44.8127 4.26797C44.7887 4.25422 44.7646 4.24047 44.744 4.22671C44.6821 4.1889 44.6168 4.15452 44.5549 4.12014C44.548 4.12014 44.5411 4.11326 44.5377 4.10982C44.1183 3.87604 43.6885 3.64913 43.2553 3.43253C43.245 3.4291 43.2347 3.42222 43.2278 3.41878H43.2244H43.2141C43.1212 3.36377 43.025 3.31908 42.9253 3.27438L42.6709 3.15405C42.6709 3.15405 42.6571 3.14374 42.6502 3.1403C42.6468 3.1403 42.6399 3.13686 42.6365 3.13343H42.6296V3.12999H42.6262C42.3271 2.98559 42.0486 2.86526 41.7838 2.75181H41.777L41.7701 2.74493H41.7632L41.7563 2.74149C41.691 2.71399 41.6291 2.68648 41.5638 2.65898L41.5363 2.64867L41.5157 2.64179H41.5122L41.3988 2.59366C41.3575 2.57647 41.3163 2.55928 41.275 2.54209C41.2544 2.53521 41.2372 2.5249 41.2166 2.51802C40.9312 2.40457 40.6974 2.31174 40.4808 2.22923L40.3502 2.1811L40.333 2.17422L40.1989 2.12265C39.8379 1.992 39.4597 1.86136 39.0816 1.74103H39.0781H39.0747C39.0678 1.74103 39.0609 1.73759 39.0575 1.73415C38.9853 1.71009 38.9131 1.68946 38.8409 1.66539C38.7653 1.64133 38.6931 1.6207 38.6174 1.59663C38.5727 1.58288 38.528 1.56913 38.4868 1.55538C38.3218 1.50724 38.167 1.46255 38.0158 1.42129H38.0089H38.0055H37.9986C37.978 1.41442 37.9573 1.41098 37.9367 1.4041C37.9023 1.39379 37.8714 1.38691 37.837 1.3766L37.8164 1.36972L37.7889 1.36285C37.476 1.28034 37.1597 1.2047 36.84 1.12906C36.6509 1.08437 36.4652 1.04311 36.2761 1.00186C35.9564 0.933096 35.6401 0.867773 35.3204 0.809327C35.2 0.788699 35.0832 0.768071 34.9628 0.747443H34.9559H34.9525C34.8356 0.726815 34.7153 0.706186 34.595 0.688996C34.5399 0.68212 34.4849 0.671806 34.4299 0.66493C34.3612 0.654616 34.289 0.644302 34.2236 0.633988C33.8833 0.585856 33.5395 0.5446 33.1957 0.51022C32.5321 0.441459 31.8617 0.393327 31.1913 0.369261C30.82 0.355509 30.4453 0.348633 30.074 0.348633C29.4448 0.348633 28.8156 0.372699 28.1899 0.410517C28.1246 0.413955 28.0593 0.417393 27.9905 0.420831C27.296 0.468963 26.605 0.541162 25.9208 0.637426C25.7971 0.654616 25.6767 0.675244 25.553 0.692434C25.553 0.692434 25.5461 0.692434 25.5427 0.692434C25.5427 0.692434 25.5427 0.692434 25.5392 0.692434L0.658298 25.4599V25.4668Z" fill="white"/>
<path d="M59.3142 34.4844V34.4637L59.3211 34.4397C59.328 34.3984 59.3349 34.3537 59.3383 34.3125V34.3021V34.2849V34.2678C59.3486 34.2127 59.3589 34.1577 59.3658 34.1027V34.0649L59.3761 34.0271C59.3761 34.0099 59.3796 33.9927 59.383 33.9755L59.4036 33.7899L59.4208 33.6627C59.438 33.5389 59.4483 33.4254 59.4621 33.3085V33.2914C59.4758 33.1813 59.4861 33.0782 59.4965 32.9716C59.5033 32.8822 59.5136 32.7997 59.5205 32.7206L59.5274 32.6347C59.5343 32.5763 59.5377 32.5178 59.5411 32.4594V32.4387V32.4181C59.548 32.3425 59.5549 32.2668 59.5583 32.1946V32.1637C59.5686 32.0537 59.579 31.9402 59.5824 31.8096V31.8027C59.5893 31.6858 59.5962 31.5724 59.603 31.4623V31.428V31.3833V31.3386C59.6099 31.2457 59.6133 31.1495 59.6168 31.0532C59.6202 30.9226 59.6237 30.8022 59.6271 30.6785V30.6613V30.6063C59.6271 30.5169 59.6271 30.4275 59.6271 30.3381V30.2212C59.6271 30.1456 59.6271 30.0665 59.6271 29.9943C59.6271 29.9152 59.6271 29.8327 59.6271 29.7536V29.6711C59.5411 24.0293 57.2824 18.7382 53.2633 14.7708C49.2374 10.7999 43.905 8.61328 38.253 8.61328C36.9465 8.61328 35.6538 8.73017 34.3886 8.96052C37.3144 10.7311 39.8482 13.0999 41.8354 15.95C44.7199 20.0825 46.2429 24.937 46.2429 29.9943C46.2429 35.0516 44.7199 39.9061 41.8354 44.0386C39.0196 48.0748 35.114 51.145 30.538 52.9156C27.7154 54.0088 24.7312 54.5658 21.6714 54.5658C17.2054 54.5658 12.9182 53.3797 9.17078 51.1587L9.17765 51.1656L9.19484 51.1828L9.21203 51.2C9.22922 51.2206 9.24641 51.2378 9.26704 51.2516L9.32549 51.31C9.37362 51.3581 9.42175 51.4028 9.46988 51.451L9.47676 51.4578L9.48707 51.4647C9.56615 51.5403 9.66241 51.6332 9.75524 51.7157L9.76899 51.726L9.78274 51.7398C9.84463 51.7982 9.90307 51.8532 9.96496 51.9117H9.9684L9.97527 51.922C10.0818 52.0217 10.1919 52.1179 10.3019 52.2142H10.3088L10.3156 52.2245C10.3878 52.2898 10.46 52.3517 10.5322 52.417L10.546 52.4274L10.5941 52.4686H10.5976L10.8073 52.6508L10.8485 52.6886L10.8588 52.699C10.9173 52.7471 10.9723 52.7952 11.0307 52.8399L11.0514 52.8571L11.072 52.8777C11.1201 52.9224 11.1786 52.9671 11.2405 53.0153L11.2611 53.0324L11.2817 53.0496C11.3264 53.0875 11.3711 53.1253 11.4158 53.1562L11.4296 53.1665L11.4433 53.1768C11.6015 53.304 11.7665 53.4313 11.9315 53.5585C11.9659 53.586 12.0037 53.6135 12.0381 53.641C12.0793 53.6719 12.1206 53.7029 12.1618 53.7338C12.1859 53.751 12.2065 53.7682 12.2306 53.7854L12.2719 53.8129C12.3372 53.861 12.4059 53.9126 12.4713 53.9607L12.5332 54.0054C12.5675 54.0295 12.6019 54.0535 12.6329 54.0776L12.6466 54.0879L12.6604 54.0982C12.7085 54.1361 12.7601 54.1704 12.8082 54.2048L12.8632 54.2426C12.9835 54.3286 13.1073 54.4145 13.2345 54.5005L13.2448 54.5074L13.2551 54.5142C13.3101 54.552 13.3652 54.5899 13.4202 54.6242L13.4614 54.6518L13.5989 54.7411L13.7433 54.8374C13.8155 54.8855 13.8946 54.9371 13.9702 54.9852C14.0493 55.0368 14.125 55.0849 14.2006 55.1331H14.3897L14.7266 55.4528C14.7782 55.4838 14.8297 55.5181 14.8848 55.5456C14.9879 55.6075 15.091 55.666 15.1942 55.7244L15.2045 55.7313L15.2148 55.7382C15.2973 55.7863 15.3764 55.831 15.4623 55.8757C15.899 56.1232 16.3425 56.357 16.786 56.577C16.8857 56.6252 16.9819 56.6733 17.0782 56.7214C17.092 56.7283 17.1057 56.7352 17.1229 56.7455C17.2157 56.7868 17.3051 56.8315 17.3979 56.8761C17.6764 57.0068 17.9618 57.134 18.2437 57.2543H18.2506L18.2575 57.2578C18.3262 57.2887 18.3984 57.3197 18.4672 57.3472C18.4878 57.354 18.5119 57.3643 18.5359 57.3747C18.6288 57.4125 18.7216 57.4503 18.8144 57.4881C19.0413 57.5809 19.2889 57.6772 19.5501 57.7735H19.557L19.5639 57.7803C19.643 57.8113 19.722 57.8422 19.8046 57.8697H19.8149L19.8252 57.8766C20.2034 58.0141 20.5781 58.1448 20.9391 58.2582H20.9529L20.9632 58.2651C21.0354 58.2892 21.1076 58.3132 21.1832 58.3339H21.1935L21.2038 58.3373C21.3138 58.3717 21.4239 58.4061 21.5339 58.4404L21.6267 58.4679C21.7608 58.5058 21.8914 58.5436 22.0221 58.5814C22.0943 58.602 22.1596 58.6192 22.2249 58.6364H22.2421C23.0604 58.8599 23.8924 59.0455 24.7106 59.1899H24.7209L24.7312 59.1934C24.8309 59.2106 24.9375 59.2312 25.0716 59.2518H25.0854C25.2194 59.2759 25.3295 59.2931 25.4292 59.3068H25.4463L25.4635 59.3103C25.577 59.3309 25.6939 59.3446 25.8108 59.3618H25.8211C27.1894 59.5544 28.5818 59.6506 29.9708 59.6506C31.3597 59.6506 32.7556 59.5544 34.1239 59.3618H34.1514C34.2614 59.3412 34.3714 59.3275 34.478 59.3103H34.4952L34.5055 59.3068L59.2971 34.5153C59.2971 34.5153 59.297 34.4878 59.3039 34.4706L59.3142 34.4844Z" fill="white"/>
</g>
<defs>
<clipPath id="clip0_1_751">
<rect width="60" height="60" fill="white"/>
</clipPath>
</defs>
</svg>
