<svg width="60" height="60" viewBox="0 0 60 60" fill="none" xmlns="http://www.w3.org/2000/svg">
<g clip-path="url(#clip0_1_310)">
<path d="M0.658268 25.467V25.4945L0.647954 25.5323C0.641078 25.5839 0.630764 25.6354 0.627326 25.687V25.6939C0.627326 25.6939 0.627325 25.7145 0.623887 25.7248C0.620449 25.7558 0.617012 25.7867 0.610136 25.8177L0.596383 25.8967V25.9105L0.589508 25.9345V25.9483V25.9586V25.9655V25.9896L0.58607 26.0067V26.0239C0.572318 26.1202 0.562003 26.2199 0.548251 26.3196C0.537937 26.4056 0.527623 26.4949 0.517309 26.5843C0.513871 26.6187 0.510433 26.6531 0.506995 26.684V26.6909C0.493243 26.8009 0.482929 26.9075 0.472615 27.0141C0.465739 27.0932 0.458863 27.1757 0.451987 27.2582V27.2651L0.445111 27.3441C0.445111 27.3751 0.438235 27.406 0.438235 27.4404C0.438235 27.4748 0.431359 27.5092 0.431359 27.5401C0.431359 27.5573 0.431359 27.5745 0.427921 27.5917C0.427921 27.6192 0.424482 27.6432 0.421044 27.6707C0.421044 27.7017 0.417607 27.7361 0.414169 27.767C0.414169 27.7808 0.414169 27.7979 0.414169 27.8117C0.403855 27.9217 0.396979 28.0352 0.390103 28.1693C0.390103 28.2311 0.383227 28.2861 0.383227 28.3412C0.383227 28.3996 0.37635 28.458 0.372912 28.5165V28.5234V28.5302V28.5371C0.372912 28.5371 0.372912 28.5543 0.372912 28.5612C0.372912 28.5749 0.372912 28.5887 0.372912 28.6024V28.6196V28.6403C0.369474 28.7056 0.366036 28.7743 0.362598 28.8397C0.362598 28.8672 0.362598 28.8947 0.362598 28.9256C0.35916 29.0459 0.355723 29.1594 0.352285 29.2763C0.352285 29.2935 0.352285 29.3141 0.352285 29.3313V29.3726C0.352285 29.4688 0.348846 29.5617 0.348846 29.6579V29.7129V29.737V29.8367C0.348846 29.8642 0.348846 29.8951 0.348846 29.9226C0.348846 29.9433 0.348846 29.9639 0.348846 29.9845C0.348846 30.0052 0.348846 30.0258 0.348846 30.0464C0.348846 30.0739 0.348846 30.1014 0.348846 30.1324V30.3077C0.434797 35.9495 2.69357 41.244 6.71605 45.2081C10.742 49.179 16.0709 51.3655 21.7264 51.3655C22.6238 51.3655 23.5176 51.3071 24.3978 51.1971C24.7966 51.149 25.1954 51.0905 25.5908 51.0183C22.665 49.2477 20.1346 46.8824 18.144 44.0323C17.422 43.0009 16.786 41.9213 16.2394 40.804C16.1156 40.553 15.9987 40.2986 15.8818 40.0442C15.8681 40.0167 15.8543 39.9892 15.844 39.9617C14.455 36.8434 13.7365 33.4638 13.7365 29.988C13.7365 24.9306 15.2595 20.0762 18.144 15.9437C18.8076 14.9948 19.5295 14.1009 20.31 13.262C22.8369 10.5357 25.9449 8.41785 29.4413 7.06671C30.5002 6.65759 31.5832 6.32066 32.6834 6.06281C34.5159 5.63306 36.3999 5.41647 38.308 5.41647C42.774 5.41647 47.0646 6.60258 50.8086 8.82354C50.8086 8.82354 50.8052 8.8201 50.8017 8.81666C50.7673 8.78228 50.733 8.7479 50.6952 8.71352C50.6505 8.66883 50.6023 8.62414 50.5542 8.57944C50.5404 8.56569 50.5267 8.55194 50.5095 8.53819L50.4992 8.52787H50.4957L50.4889 8.51412C50.4476 8.4763 50.4029 8.43504 50.3582 8.39379C50.3135 8.34909 50.2688 8.30784 50.2207 8.26658V8.25971L50.2104 8.25283L50.2001 8.24252C50.2001 8.24252 50.1829 8.22876 50.176 8.22189C50.1244 8.17376 50.0729 8.12562 50.0179 8.07749L50.0075 8.06718L49.9388 8.00529C49.9388 8.00529 49.9147 7.98466 49.9044 7.97435C49.8288 7.90559 49.7531 7.83683 49.6775 7.77151C49.5915 7.69587 49.509 7.62367 49.4265 7.55147C49.399 7.52741 49.3715 7.50678 49.344 7.48271C49.2856 7.43458 49.2306 7.38645 49.1721 7.33488L49.0587 7.23862L48.9968 7.18704L48.9521 7.14579L48.928 7.12516C48.8593 7.06671 48.7939 7.01171 48.7252 6.96014L48.7149 6.94982H48.7114L48.7045 6.93951L48.6977 6.93263C48.6495 6.89138 48.598 6.85012 48.5464 6.8123L48.543 6.80886C48.3848 6.67822 48.2163 6.54757 48.0479 6.42037L48.0444 6.41349C47.9997 6.37911 47.9551 6.34473 47.9104 6.31035L47.8554 6.26909L47.821 6.24503C47.821 6.24503 47.8072 6.23471 47.7969 6.22784C47.7969 6.22784 47.7935 6.2244 47.79 6.22096L47.7832 6.21409H47.7797L47.7728 6.20721L47.68 6.13845L47.6456 6.11438L47.5184 6.02156C47.5184 6.02156 47.4909 6.00093 47.4772 5.99405C47.4531 5.97686 47.429 5.95967 47.405 5.94248L47.3534 5.90466H47.35C47.2984 5.86685 47.2503 5.83247 47.1987 5.79465C47.1884 5.78777 47.1746 5.77746 47.1643 5.76714L47.1506 5.75683L47.1368 5.74652C47.013 5.66057 46.8893 5.57462 46.7655 5.48867H46.7621C46.7071 5.44741 46.652 5.40959 46.5936 5.37177C46.5798 5.36146 46.5661 5.35458 46.5523 5.34427L46.5489 5.34083C46.4664 5.28582 46.3839 5.23081 46.2979 5.17581C46.2945 5.17581 46.2876 5.16893 46.2842 5.16549L46.2773 5.16205H46.2704C46.2532 5.14486 46.236 5.13455 46.2154 5.12424C46.1535 5.08642 46.0951 5.04516 46.0332 5.00734L46.0229 5.00047L46.0126 4.99359C45.9232 4.93514 45.8338 4.88014 45.741 4.82169L45.7307 4.81481L45.7169 4.8045C45.6241 4.74605 45.5312 4.68761 45.435 4.62916L45.2837 4.53977C45.2596 4.52258 45.239 4.51227 45.215 4.49852C45.1875 4.48133 45.1565 4.46414 45.129 4.44695H45.1221H45.1187C45.1015 4.43663 45.0843 4.42632 45.0671 4.416C44.9984 4.37475 44.9296 4.33693 44.8643 4.29911L44.8127 4.26817C44.7886 4.25442 44.7646 4.24067 44.7439 4.22691C44.6821 4.1891 44.6167 4.15471 44.5549 4.12033C44.548 4.12033 44.5411 4.11346 44.5377 4.11002C44.1182 3.87624 43.6885 3.64933 43.2553 3.43273C43.245 3.42929 43.2347 3.42242 43.2278 3.41898H43.2243H43.214C43.1212 3.36397 43.0249 3.31928 42.9252 3.27458L42.6708 3.15425C42.6708 3.15425 42.6571 3.14394 42.6502 3.1405C42.6468 3.1405 42.6399 3.13706 42.6364 3.13362H42.6296V3.13019H42.6261C42.327 2.98579 42.0485 2.86546 41.7838 2.752H41.7769L41.7701 2.74513H41.7632L41.7563 2.74169C41.691 2.71419 41.6291 2.68668 41.5638 2.65918L41.5363 2.64886L41.5157 2.64199H41.5122L41.3988 2.59386C41.3575 2.57667 41.3162 2.55948 41.275 2.54229C41.2544 2.53541 41.2372 2.5251 41.2165 2.51822C40.9312 2.40476 40.6974 2.31194 40.4808 2.22943L40.3502 2.18129L40.333 2.17442L40.1989 2.12285C39.8379 1.9922 39.4597 1.86156 39.0815 1.74123H39.0781H39.0747C39.0678 1.74123 39.0609 1.73779 39.0575 1.73435C38.9853 1.71029 38.9131 1.68966 38.8409 1.66559C38.7652 1.64153 38.693 1.6209 38.6174 1.59683C38.5727 1.58308 38.528 1.56933 38.4868 1.55557C38.3217 1.50744 38.167 1.46275 38.0157 1.42149H38.0089H38.0054H37.9986C37.9779 1.41462 37.9573 1.41118 37.9367 1.4043C37.9023 1.39399 37.8714 1.38711 37.837 1.3768L37.8163 1.36992L37.7888 1.36305C37.476 1.28053 37.1597 1.2049 36.8399 1.12926C36.6509 1.08457 36.4652 1.04331 36.2761 1.00205C35.9564 0.933294 35.6401 0.867972 35.3203 0.809525C35.2 0.788897 35.0831 0.768269 34.9628 0.747641H34.9559H34.9525C34.8356 0.727013 34.7153 0.706385 34.5949 0.689195C34.5399 0.682319 34.4849 0.672005 34.4299 0.665129C34.3611 0.654815 34.2889 0.644501 34.2236 0.634186C33.8833 0.586054 33.5395 0.544798 33.1957 0.510418C32.5321 0.441658 31.8617 0.393525 31.1913 0.369459C30.82 0.355707 30.4452 0.348831 30.0739 0.348831C29.4448 0.348831 28.8156 0.372897 28.1899 0.410715C28.1246 0.414153 28.0593 0.417591 27.9905 0.42103C27.296 0.469162 26.605 0.54136 25.9208 0.637625C25.797 0.654815 25.6767 0.675443 25.5529 0.692633C25.5529 0.692633 25.5461 0.692633 25.5426 0.692633C25.5426 0.692633 25.5426 0.692633 25.5392 0.692633L0.658268 25.4601V25.467Z" fill="#1C2034"/>
<path d="M59.3143 34.4849V34.4642L59.3211 34.4402C59.328 34.3989 59.3349 34.3542 59.3383 34.313V34.3027V34.2855V34.2683C59.3486 34.2133 59.359 34.1583 59.3658 34.1033V34.0654L59.3762 34.0276C59.3762 34.0104 59.3796 33.9932 59.383 33.976L59.4037 33.7904L59.4208 33.6632C59.438 33.5394 59.4483 33.426 59.4621 33.3091V33.2919C59.4759 33.1819 59.4862 33.0787 59.4965 32.9721C59.5034 32.8828 59.5137 32.8002 59.5205 32.7212L59.5274 32.6352C59.5343 32.5768 59.5377 32.5183 59.5412 32.4599V32.4393V32.4186C59.548 32.343 59.5549 32.2673 59.5584 32.1952V32.1642C59.5687 32.0542 59.579 31.9407 59.5824 31.8101V31.8032C59.5893 31.6863 59.5962 31.5729 59.6031 31.4629V31.4285V31.3838V31.3391C59.6099 31.2463 59.6134 31.15 59.6168 31.0537C59.6203 30.9231 59.6237 30.8028 59.6271 30.679V30.6618V30.6068C59.6271 30.5174 59.6271 30.428 59.6271 30.3386V30.2217C59.6271 30.1461 59.6271 30.067 59.6271 29.9948C59.6271 29.9157 59.6271 29.8332 59.6271 29.7542V29.6716C59.5412 24.0299 57.2824 18.7388 53.2634 14.7713C49.2374 10.8004 43.9051 8.6138 38.253 8.6138C36.9465 8.6138 35.6538 8.73069 34.3887 8.96104C37.3144 10.7316 39.8482 13.1004 41.8354 15.9505C44.7199 20.083 46.2429 24.9375 46.2429 29.9948C46.2429 35.0521 44.7199 39.9066 41.8354 44.0391C39.0197 48.0753 35.1141 51.1455 30.5381 52.9161C27.7155 54.0094 24.7313 54.5663 21.6714 54.5663C17.2055 54.5663 12.9182 53.3802 9.17081 51.1592L9.17768 51.1661L9.19487 51.1833L9.21206 51.2005C9.22925 51.2211 9.24644 51.2383 9.26707 51.2521L9.32552 51.3105C9.37365 51.3587 9.42178 51.4033 9.46991 51.4515L9.47679 51.4584L9.4871 51.4652C9.56618 51.5409 9.66244 51.6337 9.75527 51.7162L9.76902 51.7265L9.78277 51.7403C9.84466 51.7987 9.9031 51.8537 9.96499 51.9122H9.96843L9.9753 51.9225C10.0819 52.0222 10.1919 52.1185 10.3019 52.2147H10.3088L10.3157 52.225C10.3879 52.2904 10.4601 52.3522 10.5323 52.4176L10.546 52.4279L10.5941 52.4691H10.5976L10.8073 52.6513L10.8486 52.6892L10.8589 52.6995C10.9173 52.7476 10.9723 52.7957 11.0308 52.8404L11.0514 52.8576L11.072 52.8783C11.1202 52.9229 11.1786 52.9676 11.2405 53.0158L11.2611 53.033L11.2817 53.0502C11.3264 53.088 11.3711 53.1258 11.4158 53.1567L11.4296 53.167L11.4433 53.1774C11.6015 53.3046 11.7665 53.4318 11.9315 53.559C11.9659 53.5865 12.0037 53.614 12.0381 53.6415C12.0794 53.6724 12.1206 53.7034 12.1619 53.7343C12.1859 53.7515 12.2066 53.7687 12.2306 53.7859L12.2719 53.8134C12.3372 53.8615 12.406 53.9131 12.4713 53.9612L12.5332 54.0059C12.5676 54.03 12.6019 54.0541 12.6329 54.0781L12.6466 54.0884L12.6604 54.0988C12.7085 54.1366 12.7601 54.1709 12.8082 54.2053L12.8632 54.2431C12.9836 54.3291 13.1073 54.415 13.2345 54.501L13.2449 54.5079L13.2552 54.5147C13.3102 54.5526 13.3652 54.5904 13.4202 54.6248L13.4614 54.6523L13.599 54.7417L13.7434 54.8379C13.8156 54.8861 13.8946 54.9376 13.9703 54.9858C14.0494 55.0373 14.125 55.0855 14.2006 55.1336H14.3897L14.7266 55.4533C14.7782 55.4843 14.8298 55.5187 14.8848 55.5462C14.9879 55.608 15.0911 55.6665 15.1942 55.7249L15.2045 55.7318L15.2148 55.7387C15.2974 55.7868 15.3764 55.8315 15.4624 55.8762C15.899 56.1237 16.3425 56.3575 16.786 56.5776C16.8857 56.6257 16.982 56.6738 17.0782 56.722C17.092 56.7288 17.1057 56.7357 17.1229 56.746C17.2158 56.7873 17.3052 56.832 17.398 56.8767C17.6765 57.0073 17.9618 57.1345 18.2437 57.2548H18.2506L18.2575 57.2583C18.3262 57.2892 18.3984 57.3202 18.4672 57.3477C18.4878 57.3545 18.5119 57.3649 18.536 57.3752C18.6288 57.413 18.7216 57.4508 18.8144 57.4886C19.0413 57.5815 19.2889 57.6777 19.5502 57.774H19.5571L19.5639 57.7809C19.643 57.8118 19.7221 57.8428 19.8046 57.8703H19.8149L19.8252 57.8771C20.2034 58.0146 20.5781 58.1453 20.9391 58.2587H20.9529L20.9632 58.2656C21.0354 58.2897 21.1076 58.3138 21.1832 58.3344H21.1935L21.2039 58.3378C21.3139 58.3722 21.4239 58.4066 21.5339 58.441L21.6267 58.4685C21.7608 58.5063 21.8915 58.5441 22.0221 58.5819C22.0943 58.6026 22.1596 58.6197 22.225 58.6369H22.2421C23.0604 58.8604 23.8924 59.0461 24.7106 59.1905H24.721L24.7313 59.1939C24.831 59.2111 24.9375 59.2317 25.0716 59.2523H25.0854C25.2195 59.2764 25.3295 59.2936 25.4292 59.3073H25.4464L25.4636 59.3108C25.577 59.3314 25.6939 59.3452 25.8108 59.3624H25.8211C27.1894 59.5549 28.5818 59.6511 29.9708 59.6511C31.3598 59.6511 32.7556 59.5549 34.1239 59.3624H34.1514C34.2614 59.3417 34.3715 59.328 34.478 59.3108H34.4952L34.5055 59.3073L59.2971 34.5158C59.2971 34.5158 59.2971 34.4883 59.304 34.4711L59.3143 34.4849Z" fill="#1C2034"/>
</g>
<defs>
<clipPath id="clip0_1_310">
<rect width="60" height="60" fill="white"/>
</clipPath>
</defs>
</svg>
